<?xml version="1.0" encoding="UTF-8"?>
<svg id="Layer_2_copy_4" data-name="Layer 2 copy 4" xmlns="http://www.w3.org/2000/svg" viewBox="0 0 140.08 120.38">
  <defs>
    <style>
      .cls-1 {
        opacity: .75;
      }

      .cls-2 {
        stroke-width: 13px;
      }

      .cls-2, .cls-3 {
        fill: none;
        stroke: #fff;
        stroke-linecap: round;
        stroke-miterlimit: 10;
      }

      .cls-3 {
        stroke-width: 10px;
      }

      .cls-4 {
        fill: #31322d;
      }

      .cls-5 {
        fill: #5a5757;
      }
    </style>
  </defs>
  <g class="cls-1">
    <g>
      <circle class="cls-5" cx="62.19" cy="60.22" r="52.47"/>
      <line class="cls-3" x1="37.71" y1="35.74" x2="86.68" y2="84.71"/>
      <line class="cls-3" x1="86.68" y1="35.74" x2="37.71" y2="84.71"/>
    </g>
    <g>
      <circle class="cls-5" cx="62.09" cy="60.12" r="52.47"/>
      <line class="cls-3" x1="37.61" y1="35.64" x2="86.58" y2="84.61"/>
      <line class="cls-3" x1="86.58" y1="35.64" x2="37.61" y2="84.61"/>
    </g>
    <g>
      <circle class="cls-5" cx="61.99" cy="60.02" r="52.47"/>
      <line class="cls-3" x1="37.51" y1="35.54" x2="86.48" y2="84.51"/>
      <line class="cls-3" x1="86.48" y1="35.54" x2="37.51" y2="84.51"/>
    </g>
    <g>
      <circle class="cls-5" cx="61.89" cy="59.92" r="52.47"/>
      <line class="cls-3" x1="37.41" y1="35.44" x2="86.38" y2="84.41"/>
      <line class="cls-3" x1="86.38" y1="35.44" x2="37.41" y2="84.41"/>
    </g>
    <g>
      <circle class="cls-5" cx="61.79" cy="59.82" r="52.47"/>
      <line class="cls-3" x1="37.31" y1="35.34" x2="86.28" y2="84.31"/>
      <line class="cls-3" x1="86.28" y1="35.34" x2="37.31" y2="84.31"/>
    </g>
    <g>
      <circle class="cls-5" cx="61.69" cy="59.72" r="52.47"/>
      <line class="cls-3" x1="37.21" y1="35.24" x2="86.18" y2="84.21"/>
      <line class="cls-3" x1="86.18" y1="35.24" x2="37.21" y2="84.21"/>
    </g>
    <g>
      <circle class="cls-5" cx="61.59" cy="59.62" r="52.47"/>
      <line class="cls-3" x1="37.11" y1="35.14" x2="86.08" y2="84.11"/>
      <line class="cls-3" x1="86.08" y1="35.14" x2="37.11" y2="84.11"/>
    </g>
    <g>
      <circle class="cls-5" cx="61.49" cy="59.52" r="52.47"/>
      <line class="cls-3" x1="37.01" y1="35.04" x2="85.98" y2="84.01"/>
      <line class="cls-3" x1="85.98" y1="35.04" x2="37.01" y2="84.01"/>
    </g>
    <g>
      <circle class="cls-5" cx="61.39" cy="59.42" r="52.47"/>
      <line class="cls-3" x1="36.91" y1="34.94" x2="85.88" y2="83.91"/>
      <line class="cls-3" x1="85.88" y1="34.94" x2="36.91" y2="83.91"/>
    </g>
    <g>
      <circle class="cls-5" cx="61.29" cy="59.32" r="52.47"/>
      <line class="cls-3" x1="36.81" y1="34.84" x2="85.78" y2="83.81"/>
      <line class="cls-3" x1="85.78" y1="34.84" x2="36.81" y2="83.81"/>
    </g>
    <g>
      <circle class="cls-5" cx="61.19" cy="59.22" r="52.47"/>
      <line class="cls-3" x1="36.71" y1="34.74" x2="85.68" y2="83.71"/>
      <line class="cls-3" x1="85.68" y1="34.74" x2="36.71" y2="83.71"/>
    </g>
    <g>
      <circle class="cls-5" cx="61.09" cy="59.12" r="52.47"/>
      <line class="cls-3" x1="36.61" y1="34.64" x2="85.58" y2="83.61"/>
      <line class="cls-3" x1="85.58" y1="34.64" x2="36.61" y2="83.61"/>
    </g>
    <g>
      <circle class="cls-5" cx="60.99" cy="59.02" r="52.47"/>
      <line class="cls-3" x1="36.51" y1="34.54" x2="85.48" y2="83.51"/>
      <line class="cls-3" x1="85.48" y1="34.54" x2="36.51" y2="83.51"/>
    </g>
    <g>
      <circle class="cls-5" cx="60.89" cy="58.92" r="52.47"/>
      <line class="cls-3" x1="36.41" y1="34.44" x2="85.38" y2="83.41"/>
      <line class="cls-3" x1="85.38" y1="34.44" x2="36.41" y2="83.41"/>
    </g>
    <g>
      <circle class="cls-5" cx="60.79" cy="58.82" r="52.47"/>
      <line class="cls-3" x1="36.31" y1="34.34" x2="85.28" y2="83.31"/>
      <line class="cls-3" x1="85.28" y1="34.34" x2="36.31" y2="83.31"/>
    </g>
    <g>
      <circle class="cls-5" cx="60.69" cy="58.72" r="52.47"/>
      <line class="cls-3" x1="36.21" y1="34.24" x2="85.18" y2="83.21"/>
      <line class="cls-3" x1="85.18" y1="34.24" x2="36.21" y2="83.21"/>
    </g>
    <g>
      <circle class="cls-5" cx="60.59" cy="58.62" r="52.47"/>
      <line class="cls-3" x1="36.11" y1="34.14" x2="85.08" y2="83.11"/>
      <line class="cls-3" x1="85.08" y1="34.14" x2="36.11" y2="83.11"/>
    </g>
    <g>
      <circle class="cls-5" cx="60.49" cy="58.52" r="52.47"/>
      <line class="cls-3" x1="36.01" y1="34.04" x2="84.98" y2="83.01"/>
      <line class="cls-3" x1="84.98" y1="34.04" x2="36.01" y2="83.01"/>
    </g>
    <g>
      <circle class="cls-5" cx="60.39" cy="58.42" r="52.47"/>
      <line class="cls-3" x1="35.91" y1="33.94" x2="84.88" y2="82.91"/>
      <line class="cls-3" x1="84.88" y1="33.94" x2="35.91" y2="82.91"/>
    </g>
    <g>
      <circle class="cls-5" cx="60.29" cy="58.32" r="52.47"/>
      <line class="cls-3" x1="35.81" y1="33.84" x2="84.78" y2="82.81"/>
      <line class="cls-3" x1="84.78" y1="33.84" x2="35.81" y2="82.81"/>
    </g>
    <g>
      <circle class="cls-5" cx="60.19" cy="58.22" r="52.47"/>
      <line class="cls-3" x1="35.71" y1="33.74" x2="84.68" y2="82.71"/>
      <line class="cls-3" x1="84.68" y1="33.74" x2="35.71" y2="82.71"/>
    </g>
    <g>
      <circle class="cls-5" cx="60.09" cy="58.12" r="52.47"/>
      <line class="cls-3" x1="35.61" y1="33.64" x2="84.58" y2="82.61"/>
      <line class="cls-3" x1="84.58" y1="33.64" x2="35.61" y2="82.61"/>
    </g>
    <g>
      <circle class="cls-5" cx="59.99" cy="58.02" r="52.47"/>
      <line class="cls-3" x1="35.51" y1="33.54" x2="84.48" y2="82.51"/>
      <line class="cls-3" x1="84.48" y1="33.54" x2="35.51" y2="82.51"/>
    </g>
    <g>
      <circle class="cls-5" cx="59.89" cy="57.92" r="52.47"/>
      <line class="cls-3" x1="35.41" y1="33.44" x2="84.38" y2="82.41"/>
      <line class="cls-3" x1="84.38" y1="33.44" x2="35.41" y2="82.41"/>
    </g>
    <g>
      <circle class="cls-5" cx="59.79" cy="57.82" r="52.47"/>
      <line class="cls-3" x1="35.31" y1="33.34" x2="84.28" y2="82.31"/>
      <line class="cls-3" x1="84.28" y1="33.34" x2="35.31" y2="82.31"/>
    </g>
    <g>
      <circle class="cls-5" cx="59.69" cy="57.72" r="52.47"/>
      <line class="cls-3" x1="35.21" y1="33.24" x2="84.18" y2="82.21"/>
      <line class="cls-3" x1="84.18" y1="33.24" x2="35.21" y2="82.21"/>
    </g>
    <g>
      <circle class="cls-5" cx="59.59" cy="57.62" r="52.47"/>
      <line class="cls-3" x1="35.11" y1="33.14" x2="84.08" y2="82.11"/>
      <line class="cls-3" x1="84.08" y1="33.14" x2="35.11" y2="82.11"/>
    </g>
    <g>
      <circle class="cls-5" cx="59.49" cy="57.52" r="52.47"/>
      <line class="cls-3" x1="35.01" y1="33.04" x2="83.98" y2="82.01"/>
      <line class="cls-3" x1="83.98" y1="33.04" x2="35.01" y2="82.01"/>
    </g>
    <g>
      <circle class="cls-5" cx="59.39" cy="57.42" r="52.47"/>
      <line class="cls-3" x1="34.91" y1="32.94" x2="83.88" y2="81.91"/>
      <line class="cls-3" x1="83.88" y1="32.94" x2="34.91" y2="81.91"/>
    </g>
    <g>
      <circle class="cls-5" cx="59.29" cy="57.32" r="52.47"/>
      <line class="cls-3" x1="34.81" y1="32.84" x2="83.78" y2="81.81"/>
      <line class="cls-3" x1="83.78" y1="32.84" x2="34.81" y2="81.81"/>
    </g>
    <g>
      <circle class="cls-5" cx="59.19" cy="57.22" r="52.47"/>
      <line class="cls-3" x1="34.71" y1="32.74" x2="83.68" y2="81.71"/>
      <line class="cls-3" x1="83.68" y1="32.74" x2="34.71" y2="81.71"/>
    </g>
  </g>
  <g>
    <circle class="cls-4" cx="59.19" cy="57.22" r="52.47"/>
    <line class="cls-2" x1="38.03" y1="36.07" x2="80.35" y2="78.38"/>
    <line class="cls-2" x1="80.35" y1="36.07" x2="38.03" y2="78.38"/>
  </g>
</svg>