<?xml version="1.0" encoding="UTF-8"?>
<svg id="Layer_1" data-name="Layer 1" xmlns="http://www.w3.org/2000/svg" viewBox="0 0 121.55 120.18">
  <defs>
    <style>
      .cls-1, .cls-2, .cls-3, .cls-4, .cls-5, .cls-6, .cls-7, .cls-8 {
        fill: #fff;
        stroke-miterlimit: 10;
      }

      .cls-1, .cls-4, .cls-5, .cls-7 {
        stroke: #231f20;
      }

      .cls-1, .cls-6 {
        stroke-width: 5px;
      }

      .cls-2, .cls-3, .cls-6, .cls-8 {
        stroke: #58595b;
      }

      .cls-2, .cls-5 {
        stroke-width: 2px;
      }

      .cls-3, .cls-7 {
        stroke-width: 4px;
      }

      .cls-4, .cls-8 {
        stroke-width: 3px;
      }
    </style>
  </defs>
  <g>
    <rect class="cls-6" x="18.24" y="5.13" width="88.23" height="88.23" rx="6.74" ry="6.74"/>
    <rect class="cls-6" x="32.31" y="16.48" width="60.09" height="53.44" rx="2.41" ry="2.41"/>
    <circle class="cls-2" cx="90.03" cy="81.62" r="4.43"/>
    <circle class="cls-2" cx="79.36" cy="81.62" r="2.51"/>
    <circle class="cls-2" cx="70.52" cy="81.62" r="2.51"/>
    <rect class="cls-3" x="5.16" y="100.65" width="114.38" height="17.53" rx="2.41" ry="2.41"/>
    <rect class="cls-8" x="15.57" y="106.82" width="5.19" height="5.19"/>
    <rect class="cls-8" x="84.46" y="106.73" width="25.7" height=".17"/>
  </g>
  <g>
    <rect class="cls-4" x="26.77" y="86.9" width="64.84" height="14.52"/>
    <rect class="cls-1" x="15.08" y="2.5" width="88.23" height="88.23" rx="6.74" ry="6.74"/>
    <rect class="cls-1" x="29.15" y="13.85" width="60.09" height="53.44" rx="2.41" ry="2.41"/>
    <circle class="cls-5" cx="86.87" cy="78.99" r="4.43"/>
    <circle class="cls-5" cx="76.2" cy="78.99" r="2.51"/>
    <circle class="cls-5" cx="67.35" cy="78.99" r="2.51"/>
    <rect class="cls-7" x="2" y="98.02" width="114.38" height="17.53" rx="2.41" ry="2.41"/>
    <rect class="cls-4" x="12.4" y="104.19" width="5.19" height="5.19"/>
    <rect class="cls-4" x="81.3" y="104.1" width="25.7" height=".17"/>
  </g>
</svg>