<?xml version="1.0" encoding="UTF-8"?>
<svg id="Layer_2_copy_2" data-name="Layer 2 copy 2" xmlns="http://www.w3.org/2000/svg" viewBox="0 0 121.55 120.38">
  <defs>
    <style>
      .cls-1 {
        opacity: .75;
      }

      .cls-2, .cls-3, .cls-4 {
        fill: #fff;
      }

      .cls-2, .cls-3, .cls-5 {
        stroke: #231f20;
        stroke-miterlimit: 10;
        stroke-width: 5px;
      }

      .cls-3, .cls-5 {
        stroke-linecap: round;
      }

      .cls-5 {
        fill: none;
      }
    </style>
  </defs>
  <g class="cls-1">
    <g>
      <rect class="cls-2" x="10.09" y="20.76" width="104.21" height="78.92" rx="6.4" ry="6.4"/>
      <g>
        <path class="cls-4" d="M23.57,33l13.39,8.49"/>
        <path class="cls-5" d="M23.57,33l13.39,8.49"/>
      </g>
      <g>
        <path class="cls-4" d="M36.96,41.49l-13.39,8.49"/>
        <path class="cls-5" d="M36.96,41.49l-13.39,8.49"/>
      </g>
      <line class="cls-3" x1="45.23" y1="49.98" x2="68.89" y2="49.98"/>
      <g>
        <path class="cls-4" d="M89.86,32.04l-13.39,8.49"/>
        <path class="cls-5" d="M89.86,32.04l-13.39,8.49"/>
      </g>
      <g>
        <path class="cls-4" d="M76.47,40.53l13.39,8.49"/>
        <path class="cls-5" d="M76.47,40.53l13.39,8.49"/>
      </g>
    </g>
    <g>
      <rect class="cls-2" x="9.99" y="20.66" width="104.21" height="78.92" rx="6.4" ry="6.4"/>
      <g>
        <path class="cls-4" d="M23.47,32.9l13.39,8.49"/>
        <path class="cls-5" d="M23.47,32.9l13.39,8.49"/>
      </g>
      <g>
        <path class="cls-4" d="M36.86,41.39l-13.39,8.49"/>
        <path class="cls-5" d="M36.86,41.39l-13.39,8.49"/>
      </g>
      <line class="cls-3" x1="45.13" y1="49.88" x2="68.79" y2="49.88"/>
      <g>
        <path class="cls-4" d="M89.76,31.94l-13.39,8.49"/>
        <path class="cls-5" d="M89.76,31.94l-13.39,8.49"/>
      </g>
      <g>
        <path class="cls-4" d="M76.37,40.43l13.39,8.49"/>
        <path class="cls-5" d="M76.37,40.43l13.39,8.49"/>
      </g>
    </g>
    <g>
      <rect class="cls-2" x="9.89" y="20.56" width="104.21" height="78.92" rx="6.4" ry="6.4"/>
      <g>
        <path class="cls-4" d="M23.37,32.8l13.39,8.49"/>
        <path class="cls-5" d="M23.37,32.8l13.39,8.49"/>
      </g>
      <g>
        <path class="cls-4" d="M36.76,41.29l-13.39,8.49"/>
        <path class="cls-5" d="M36.76,41.29l-13.39,8.49"/>
      </g>
      <line class="cls-3" x1="45.03" y1="49.78" x2="68.69" y2="49.78"/>
      <g>
        <path class="cls-4" d="M89.66,31.84l-13.39,8.49"/>
        <path class="cls-5" d="M89.66,31.84l-13.39,8.49"/>
      </g>
      <g>
        <path class="cls-4" d="M76.27,40.33l13.39,8.49"/>
        <path class="cls-5" d="M76.27,40.33l13.39,8.49"/>
      </g>
    </g>
    <g>
      <rect class="cls-2" x="9.79" y="20.46" width="104.21" height="78.92" rx="6.4" ry="6.4"/>
      <g>
        <path class="cls-4" d="M23.27,32.7l13.39,8.49"/>
        <path class="cls-5" d="M23.27,32.7l13.39,8.49"/>
      </g>
      <g>
        <path class="cls-4" d="M36.66,41.19l-13.39,8.49"/>
        <path class="cls-5" d="M36.66,41.19l-13.39,8.49"/>
      </g>
      <line class="cls-3" x1="44.93" y1="49.68" x2="68.59" y2="49.68"/>
      <g>
        <path class="cls-4" d="M89.56,31.74l-13.39,8.49"/>
        <path class="cls-5" d="M89.56,31.74l-13.39,8.49"/>
      </g>
      <g>
        <path class="cls-4" d="M76.17,40.23l13.39,8.49"/>
        <path class="cls-5" d="M76.17,40.23l13.39,8.49"/>
      </g>
    </g>
    <g>
      <rect class="cls-2" x="9.69" y="20.36" width="104.21" height="78.92" rx="6.4" ry="6.4"/>
      <g>
        <path class="cls-4" d="M23.17,32.6l13.39,8.49"/>
        <path class="cls-5" d="M23.17,32.6l13.39,8.49"/>
      </g>
      <g>
        <path class="cls-4" d="M36.56,41.09l-13.39,8.49"/>
        <path class="cls-5" d="M36.56,41.09l-13.39,8.49"/>
      </g>
      <line class="cls-3" x1="44.83" y1="49.58" x2="68.49" y2="49.58"/>
      <g>
        <path class="cls-4" d="M89.46,31.64l-13.39,8.49"/>
        <path class="cls-5" d="M89.46,31.64l-13.39,8.49"/>
      </g>
      <g>
        <path class="cls-4" d="M76.07,40.13l13.39,8.49"/>
        <path class="cls-5" d="M76.07,40.13l13.39,8.49"/>
      </g>
    </g>
    <g>
      <rect class="cls-2" x="9.59" y="20.26" width="104.21" height="78.92" rx="6.4" ry="6.4"/>
      <g>
        <path class="cls-4" d="M23.07,32.5l13.39,8.49"/>
        <path class="cls-5" d="M23.07,32.5l13.39,8.49"/>
      </g>
      <g>
        <path class="cls-4" d="M36.46,40.99l-13.39,8.49"/>
        <path class="cls-5" d="M36.46,40.99l-13.39,8.49"/>
      </g>
      <line class="cls-3" x1="44.73" y1="49.48" x2="68.39" y2="49.48"/>
      <g>
        <path class="cls-4" d="M89.36,31.54l-13.39,8.49"/>
        <path class="cls-5" d="M89.36,31.54l-13.39,8.49"/>
      </g>
      <g>
        <path class="cls-4" d="M75.97,40.03l13.39,8.49"/>
        <path class="cls-5" d="M75.97,40.03l13.39,8.49"/>
      </g>
    </g>
    <g>
      <rect class="cls-2" x="9.49" y="20.16" width="104.21" height="78.92" rx="6.4" ry="6.4"/>
      <g>
        <path class="cls-4" d="M22.97,32.4l13.39,8.49"/>
        <path class="cls-5" d="M22.97,32.4l13.39,8.49"/>
      </g>
      <g>
        <path class="cls-4" d="M36.36,40.89l-13.39,8.49"/>
        <path class="cls-5" d="M36.36,40.89l-13.39,8.49"/>
      </g>
      <line class="cls-3" x1="44.63" y1="49.38" x2="68.29" y2="49.38"/>
      <g>
        <path class="cls-4" d="M89.26,31.44l-13.39,8.49"/>
        <path class="cls-5" d="M89.26,31.44l-13.39,8.49"/>
      </g>
      <g>
        <path class="cls-4" d="M75.87,39.93l13.39,8.49"/>
        <path class="cls-5" d="M75.87,39.93l13.39,8.49"/>
      </g>
    </g>
    <g>
      <rect class="cls-2" x="9.39" y="20.06" width="104.21" height="78.92" rx="6.4" ry="6.4"/>
      <g>
        <path class="cls-4" d="M22.87,32.3l13.39,8.49"/>
        <path class="cls-5" d="M22.87,32.3l13.39,8.49"/>
      </g>
      <g>
        <path class="cls-4" d="M36.26,40.79l-13.39,8.49"/>
        <path class="cls-5" d="M36.26,40.79l-13.39,8.49"/>
      </g>
      <line class="cls-3" x1="44.53" y1="49.28" x2="68.19" y2="49.28"/>
      <g>
        <path class="cls-4" d="M89.16,31.34l-13.39,8.49"/>
        <path class="cls-5" d="M89.16,31.34l-13.39,8.49"/>
      </g>
      <g>
        <path class="cls-4" d="M75.77,39.83l13.39,8.49"/>
        <path class="cls-5" d="M75.77,39.83l13.39,8.49"/>
      </g>
    </g>
    <g>
      <rect class="cls-2" x="9.29" y="19.96" width="104.21" height="78.92" rx="6.4" ry="6.4"/>
      <g>
        <path class="cls-4" d="M22.77,32.2l13.39,8.49"/>
        <path class="cls-5" d="M22.77,32.2l13.39,8.49"/>
      </g>
      <g>
        <path class="cls-4" d="M36.16,40.69l-13.39,8.49"/>
        <path class="cls-5" d="M36.16,40.69l-13.39,8.49"/>
      </g>
      <line class="cls-3" x1="44.43" y1="49.18" x2="68.09" y2="49.18"/>
      <g>
        <path class="cls-4" d="M89.06,31.24l-13.39,8.49"/>
        <path class="cls-5" d="M89.06,31.24l-13.39,8.49"/>
      </g>
      <g>
        <path class="cls-4" d="M75.67,39.73l13.39,8.49"/>
        <path class="cls-5" d="M75.67,39.73l13.39,8.49"/>
      </g>
    </g>
    <g>
      <rect class="cls-2" x="9.19" y="19.86" width="104.21" height="78.92" rx="6.4" ry="6.4"/>
      <g>
        <path class="cls-4" d="M22.67,32.1l13.39,8.49"/>
        <path class="cls-5" d="M22.67,32.1l13.39,8.49"/>
      </g>
      <g>
        <path class="cls-4" d="M36.06,40.59l-13.39,8.49"/>
        <path class="cls-5" d="M36.06,40.59l-13.39,8.49"/>
      </g>
      <line class="cls-3" x1="44.33" y1="49.08" x2="67.99" y2="49.08"/>
      <g>
        <path class="cls-4" d="M88.96,31.14l-13.39,8.49"/>
        <path class="cls-5" d="M88.96,31.14l-13.39,8.49"/>
      </g>
      <g>
        <path class="cls-4" d="M75.57,39.63l13.39,8.49"/>
        <path class="cls-5" d="M75.57,39.63l13.39,8.49"/>
      </g>
    </g>
    <g>
      <rect class="cls-2" x="9.09" y="19.76" width="104.21" height="78.92" rx="6.4" ry="6.4"/>
      <g>
        <path class="cls-4" d="M22.57,32l13.39,8.49"/>
        <path class="cls-5" d="M22.57,32l13.39,8.49"/>
      </g>
      <g>
        <path class="cls-4" d="M35.96,40.49l-13.39,8.49"/>
        <path class="cls-5" d="M35.96,40.49l-13.39,8.49"/>
      </g>
      <line class="cls-3" x1="44.23" y1="48.98" x2="67.89" y2="48.98"/>
      <g>
        <path class="cls-4" d="M88.86,31.04l-13.39,8.49"/>
        <path class="cls-5" d="M88.86,31.04l-13.39,8.49"/>
      </g>
      <g>
        <path class="cls-4" d="M75.47,39.53l13.39,8.49"/>
        <path class="cls-5" d="M75.47,39.53l13.39,8.49"/>
      </g>
    </g>
    <g>
      <rect class="cls-2" x="8.99" y="19.66" width="104.21" height="78.92" rx="6.4" ry="6.4"/>
      <g>
        <path class="cls-4" d="M22.47,31.9l13.39,8.49"/>
        <path class="cls-5" d="M22.47,31.9l13.39,8.49"/>
      </g>
      <g>
        <path class="cls-4" d="M35.86,40.39l-13.39,8.49"/>
        <path class="cls-5" d="M35.86,40.39l-13.39,8.49"/>
      </g>
      <line class="cls-3" x1="44.13" y1="48.88" x2="67.79" y2="48.88"/>
      <g>
        <path class="cls-4" d="M88.76,30.94l-13.39,8.49"/>
        <path class="cls-5" d="M88.76,30.94l-13.39,8.49"/>
      </g>
      <g>
        <path class="cls-4" d="M75.37,39.43l13.39,8.49"/>
        <path class="cls-5" d="M75.37,39.43l13.39,8.49"/>
      </g>
    </g>
    <g>
      <rect class="cls-2" x="8.89" y="19.56" width="104.21" height="78.92" rx="6.4" ry="6.4"/>
      <g>
        <path class="cls-4" d="M22.37,31.8l13.39,8.49"/>
        <path class="cls-5" d="M22.37,31.8l13.39,8.49"/>
      </g>
      <g>
        <path class="cls-4" d="M35.76,40.29l-13.39,8.49"/>
        <path class="cls-5" d="M35.76,40.29l-13.39,8.49"/>
      </g>
      <line class="cls-3" x1="44.03" y1="48.78" x2="67.69" y2="48.78"/>
      <g>
        <path class="cls-4" d="M88.66,30.84l-13.39,8.49"/>
        <path class="cls-5" d="M88.66,30.84l-13.39,8.49"/>
      </g>
      <g>
        <path class="cls-4" d="M75.27,39.33l13.39,8.49"/>
        <path class="cls-5" d="M75.27,39.33l13.39,8.49"/>
      </g>
    </g>
    <g>
      <rect class="cls-2" x="8.79" y="19.46" width="104.21" height="78.92" rx="6.4" ry="6.4"/>
      <g>
        <path class="cls-4" d="M22.27,31.7l13.39,8.49"/>
        <path class="cls-5" d="M22.27,31.7l13.39,8.49"/>
      </g>
      <g>
        <path class="cls-4" d="M35.66,40.19l-13.39,8.49"/>
        <path class="cls-5" d="M35.66,40.19l-13.39,8.49"/>
      </g>
      <line class="cls-3" x1="43.93" y1="48.68" x2="67.59" y2="48.68"/>
      <g>
        <path class="cls-4" d="M88.56,30.74l-13.39,8.49"/>
        <path class="cls-5" d="M88.56,30.74l-13.39,8.49"/>
      </g>
      <g>
        <path class="cls-4" d="M75.17,39.23l13.39,8.49"/>
        <path class="cls-5" d="M75.17,39.23l13.39,8.49"/>
      </g>
    </g>
    <g>
      <rect class="cls-2" x="8.69" y="19.36" width="104.21" height="78.92" rx="6.4" ry="6.4"/>
      <g>
        <path class="cls-4" d="M22.17,31.6l13.39,8.49"/>
        <path class="cls-5" d="M22.17,31.6l13.39,8.49"/>
      </g>
      <g>
        <path class="cls-4" d="M35.56,40.09l-13.39,8.49"/>
        <path class="cls-5" d="M35.56,40.09l-13.39,8.49"/>
      </g>
      <line class="cls-3" x1="43.83" y1="48.58" x2="67.49" y2="48.58"/>
      <g>
        <path class="cls-4" d="M88.46,30.64l-13.39,8.49"/>
        <path class="cls-5" d="M88.46,30.64l-13.39,8.49"/>
      </g>
      <g>
        <path class="cls-4" d="M75.07,39.13l13.39,8.49"/>
        <path class="cls-5" d="M75.07,39.13l13.39,8.49"/>
      </g>
    </g>
    <g>
      <rect class="cls-2" x="8.59" y="19.26" width="104.21" height="78.92" rx="6.4" ry="6.4"/>
      <g>
        <path class="cls-4" d="M22.07,31.5l13.39,8.49"/>
        <path class="cls-5" d="M22.07,31.5l13.39,8.49"/>
      </g>
      <g>
        <path class="cls-4" d="M35.46,39.99l-13.39,8.49"/>
        <path class="cls-5" d="M35.46,39.99l-13.39,8.49"/>
      </g>
      <line class="cls-3" x1="43.73" y1="48.48" x2="67.39" y2="48.48"/>
      <g>
        <path class="cls-4" d="M88.36,30.54l-13.39,8.49"/>
        <path class="cls-5" d="M88.36,30.54l-13.39,8.49"/>
      </g>
      <g>
        <path class="cls-4" d="M74.97,39.03l13.39,8.49"/>
        <path class="cls-5" d="M74.97,39.03l13.39,8.49"/>
      </g>
    </g>
    <g>
      <rect class="cls-2" x="8.49" y="19.16" width="104.21" height="78.92" rx="6.4" ry="6.4"/>
      <g>
        <path class="cls-4" d="M21.97,31.4l13.39,8.49"/>
        <path class="cls-5" d="M21.97,31.4l13.39,8.49"/>
      </g>
      <g>
        <path class="cls-4" d="M35.36,39.89l-13.39,8.49"/>
        <path class="cls-5" d="M35.36,39.89l-13.39,8.49"/>
      </g>
      <line class="cls-3" x1="43.63" y1="48.38" x2="67.29" y2="48.38"/>
      <g>
        <path class="cls-4" d="M88.26,30.44l-13.39,8.49"/>
        <path class="cls-5" d="M88.26,30.44l-13.39,8.49"/>
      </g>
      <g>
        <path class="cls-4" d="M74.87,38.93l13.39,8.49"/>
        <path class="cls-5" d="M74.87,38.93l13.39,8.49"/>
      </g>
    </g>
    <g>
      <rect class="cls-2" x="8.39" y="19.06" width="104.21" height="78.92" rx="6.4" ry="6.4"/>
      <g>
        <path class="cls-4" d="M21.87,31.3l13.39,8.49"/>
        <path class="cls-5" d="M21.87,31.3l13.39,8.49"/>
      </g>
      <g>
        <path class="cls-4" d="M35.26,39.79l-13.39,8.49"/>
        <path class="cls-5" d="M35.26,39.79l-13.39,8.49"/>
      </g>
      <line class="cls-3" x1="43.53" y1="48.28" x2="67.19" y2="48.28"/>
      <g>
        <path class="cls-4" d="M88.16,30.34l-13.39,8.49"/>
        <path class="cls-5" d="M88.16,30.34l-13.39,8.49"/>
      </g>
      <g>
        <path class="cls-4" d="M74.77,38.83l13.39,8.49"/>
        <path class="cls-5" d="M74.77,38.83l13.39,8.49"/>
      </g>
    </g>
    <g>
      <rect class="cls-2" x="8.29" y="18.96" width="104.21" height="78.92" rx="6.4" ry="6.4"/>
      <g>
        <path class="cls-4" d="M21.77,31.2l13.39,8.49"/>
        <path class="cls-5" d="M21.77,31.2l13.39,8.49"/>
      </g>
      <g>
        <path class="cls-4" d="M35.16,39.69l-13.39,8.49"/>
        <path class="cls-5" d="M35.16,39.69l-13.39,8.49"/>
      </g>
      <line class="cls-3" x1="43.43" y1="48.18" x2="67.09" y2="48.18"/>
      <g>
        <path class="cls-4" d="M88.06,30.24l-13.39,8.49"/>
        <path class="cls-5" d="M88.06,30.24l-13.39,8.49"/>
      </g>
      <g>
        <path class="cls-4" d="M74.67,38.73l13.39,8.49"/>
        <path class="cls-5" d="M74.67,38.73l13.39,8.49"/>
      </g>
    </g>
    <g>
      <rect class="cls-2" x="8.19" y="18.86" width="104.21" height="78.92" rx="6.4" ry="6.4"/>
      <g>
        <path class="cls-4" d="M21.67,31.1l13.39,8.49"/>
        <path class="cls-5" d="M21.67,31.1l13.39,8.49"/>
      </g>
      <g>
        <path class="cls-4" d="M35.06,39.59l-13.39,8.49"/>
        <path class="cls-5" d="M35.06,39.59l-13.39,8.49"/>
      </g>
      <line class="cls-3" x1="43.33" y1="48.08" x2="66.99" y2="48.08"/>
      <g>
        <path class="cls-4" d="M87.96,30.14l-13.39,8.49"/>
        <path class="cls-5" d="M87.96,30.14l-13.39,8.49"/>
      </g>
      <g>
        <path class="cls-4" d="M74.57,38.63l13.39,8.49"/>
        <path class="cls-5" d="M74.57,38.63l13.39,8.49"/>
      </g>
    </g>
    <g>
      <rect class="cls-2" x="8.09" y="18.76" width="104.21" height="78.92" rx="6.4" ry="6.4"/>
      <g>
        <path class="cls-4" d="M21.57,31l13.39,8.49"/>
        <path class="cls-5" d="M21.57,31l13.39,8.49"/>
      </g>
      <g>
        <path class="cls-4" d="M34.96,39.49l-13.39,8.49"/>
        <path class="cls-5" d="M34.96,39.49l-13.39,8.49"/>
      </g>
      <line class="cls-3" x1="43.23" y1="47.98" x2="66.89" y2="47.98"/>
      <g>
        <path class="cls-4" d="M87.86,30.04l-13.39,8.49"/>
        <path class="cls-5" d="M87.86,30.04l-13.39,8.49"/>
      </g>
      <g>
        <path class="cls-4" d="M74.47,38.53l13.39,8.49"/>
        <path class="cls-5" d="M74.47,38.53l13.39,8.49"/>
      </g>
    </g>
    <g>
      <rect class="cls-2" x="7.99" y="18.66" width="104.21" height="78.92" rx="6.4" ry="6.4"/>
      <g>
        <path class="cls-4" d="M21.47,30.9l13.39,8.49"/>
        <path class="cls-5" d="M21.47,30.9l13.39,8.49"/>
      </g>
      <g>
        <path class="cls-4" d="M34.86,39.39l-13.39,8.49"/>
        <path class="cls-5" d="M34.86,39.39l-13.39,8.49"/>
      </g>
      <line class="cls-3" x1="43.13" y1="47.88" x2="66.79" y2="47.88"/>
      <g>
        <path class="cls-4" d="M87.76,29.94l-13.39,8.49"/>
        <path class="cls-5" d="M87.76,29.94l-13.39,8.49"/>
      </g>
      <g>
        <path class="cls-4" d="M74.37,38.43l13.39,8.49"/>
        <path class="cls-5" d="M74.37,38.43l13.39,8.49"/>
      </g>
    </g>
    <g>
      <rect class="cls-2" x="7.89" y="18.56" width="104.21" height="78.92" rx="6.4" ry="6.4"/>
      <g>
        <path class="cls-4" d="M21.37,30.8l13.39,8.49"/>
        <path class="cls-5" d="M21.37,30.8l13.39,8.49"/>
      </g>
      <g>
        <path class="cls-4" d="M34.76,39.29l-13.39,8.49"/>
        <path class="cls-5" d="M34.76,39.29l-13.39,8.49"/>
      </g>
      <line class="cls-3" x1="43.03" y1="47.78" x2="66.69" y2="47.78"/>
      <g>
        <path class="cls-4" d="M87.66,29.84l-13.39,8.49"/>
        <path class="cls-5" d="M87.66,29.84l-13.39,8.49"/>
      </g>
      <g>
        <path class="cls-4" d="M74.27,38.33l13.39,8.49"/>
        <path class="cls-5" d="M74.27,38.33l13.39,8.49"/>
      </g>
    </g>
    <g>
      <rect class="cls-2" x="7.79" y="18.46" width="104.21" height="78.92" rx="6.4" ry="6.4"/>
      <g>
        <path class="cls-4" d="M21.27,30.7l13.39,8.49"/>
        <path class="cls-5" d="M21.27,30.7l13.39,8.49"/>
      </g>
      <g>
        <path class="cls-4" d="M34.66,39.19l-13.39,8.49"/>
        <path class="cls-5" d="M34.66,39.19l-13.39,8.49"/>
      </g>
      <line class="cls-3" x1="42.93" y1="47.68" x2="66.59" y2="47.68"/>
      <g>
        <path class="cls-4" d="M87.56,29.74l-13.39,8.49"/>
        <path class="cls-5" d="M87.56,29.74l-13.39,8.49"/>
      </g>
      <g>
        <path class="cls-4" d="M74.17,38.23l13.39,8.49"/>
        <path class="cls-5" d="M74.17,38.23l13.39,8.49"/>
      </g>
    </g>
    <g>
      <rect class="cls-2" x="7.69" y="18.36" width="104.21" height="78.92" rx="6.4" ry="6.4"/>
      <g>
        <path class="cls-4" d="M21.17,30.6l13.39,8.49"/>
        <path class="cls-5" d="M21.17,30.6l13.39,8.49"/>
      </g>
      <g>
        <path class="cls-4" d="M34.56,39.09l-13.39,8.49"/>
        <path class="cls-5" d="M34.56,39.09l-13.39,8.49"/>
      </g>
      <line class="cls-3" x1="42.83" y1="47.58" x2="66.49" y2="47.58"/>
      <g>
        <path class="cls-4" d="M87.46,29.64l-13.39,8.49"/>
        <path class="cls-5" d="M87.46,29.64l-13.39,8.49"/>
      </g>
      <g>
        <path class="cls-4" d="M74.07,38.13l13.39,8.49"/>
        <path class="cls-5" d="M74.07,38.13l13.39,8.49"/>
      </g>
    </g>
    <g>
      <rect class="cls-2" x="7.59" y="18.26" width="104.21" height="78.92" rx="6.4" ry="6.4"/>
      <g>
        <path class="cls-4" d="M21.07,30.5l13.39,8.49"/>
        <path class="cls-5" d="M21.07,30.5l13.39,8.49"/>
      </g>
      <g>
        <path class="cls-4" d="M34.46,38.99l-13.39,8.49"/>
        <path class="cls-5" d="M34.46,38.99l-13.39,8.49"/>
      </g>
      <line class="cls-3" x1="42.73" y1="47.48" x2="66.39" y2="47.48"/>
      <g>
        <path class="cls-4" d="M87.36,29.54l-13.39,8.49"/>
        <path class="cls-5" d="M87.36,29.54l-13.39,8.49"/>
      </g>
      <g>
        <path class="cls-4" d="M73.97,38.03l13.39,8.49"/>
        <path class="cls-5" d="M73.97,38.03l13.39,8.49"/>
      </g>
    </g>
    <g>
      <rect class="cls-2" x="7.49" y="18.16" width="104.21" height="78.92" rx="6.4" ry="6.4"/>
      <g>
        <path class="cls-4" d="M20.97,30.4l13.39,8.49"/>
        <path class="cls-5" d="M20.97,30.4l13.39,8.49"/>
      </g>
      <g>
        <path class="cls-4" d="M34.36,38.89l-13.39,8.49"/>
        <path class="cls-5" d="M34.36,38.89l-13.39,8.49"/>
      </g>
      <line class="cls-3" x1="42.63" y1="47.38" x2="66.29" y2="47.38"/>
      <g>
        <path class="cls-4" d="M87.26,29.44l-13.39,8.49"/>
        <path class="cls-5" d="M87.26,29.44l-13.39,8.49"/>
      </g>
      <g>
        <path class="cls-4" d="M73.87,37.93l13.39,8.49"/>
        <path class="cls-5" d="M73.87,37.93l13.39,8.49"/>
      </g>
    </g>
    <g>
      <rect class="cls-2" x="7.39" y="18.06" width="104.21" height="78.92" rx="6.4" ry="6.4"/>
      <g>
        <path class="cls-4" d="M20.87,30.3l13.39,8.49"/>
        <path class="cls-5" d="M20.87,30.3l13.39,8.49"/>
      </g>
      <g>
        <path class="cls-4" d="M34.26,38.79l-13.39,8.49"/>
        <path class="cls-5" d="M34.26,38.79l-13.39,8.49"/>
      </g>
      <line class="cls-3" x1="42.53" y1="47.28" x2="66.19" y2="47.28"/>
      <g>
        <path class="cls-4" d="M87.16,29.34l-13.39,8.49"/>
        <path class="cls-5" d="M87.16,29.34l-13.39,8.49"/>
      </g>
      <g>
        <path class="cls-4" d="M73.77,37.83l13.39,8.49"/>
        <path class="cls-5" d="M73.77,37.83l13.39,8.49"/>
      </g>
    </g>
    <g>
      <rect class="cls-2" x="7.29" y="17.96" width="104.21" height="78.92" rx="6.4" ry="6.4"/>
      <g>
        <path class="cls-4" d="M20.77,30.2l13.39,8.49"/>
        <path class="cls-5" d="M20.77,30.2l13.39,8.49"/>
      </g>
      <g>
        <path class="cls-4" d="M34.16,38.69l-13.39,8.49"/>
        <path class="cls-5" d="M34.16,38.69l-13.39,8.49"/>
      </g>
      <line class="cls-3" x1="42.43" y1="47.18" x2="66.09" y2="47.18"/>
      <g>
        <path class="cls-4" d="M87.06,29.24l-13.39,8.49"/>
        <path class="cls-5" d="M87.06,29.24l-13.39,8.49"/>
      </g>
      <g>
        <path class="cls-4" d="M73.67,37.73l13.39,8.49"/>
        <path class="cls-5" d="M73.67,37.73l13.39,8.49"/>
      </g>
    </g>
    <g>
      <rect class="cls-2" x="7.19" y="17.86" width="104.21" height="78.92" rx="6.4" ry="6.4"/>
      <g>
        <path class="cls-4" d="M20.67,30.1l13.39,8.49"/>
        <path class="cls-5" d="M20.67,30.1l13.39,8.49"/>
      </g>
      <g>
        <path class="cls-4" d="M34.06,38.59l-13.39,8.49"/>
        <path class="cls-5" d="M34.06,38.59l-13.39,8.49"/>
      </g>
      <line class="cls-3" x1="42.33" y1="47.08" x2="65.99" y2="47.08"/>
      <g>
        <path class="cls-4" d="M86.96,29.14l-13.39,8.49"/>
        <path class="cls-5" d="M86.96,29.14l-13.39,8.49"/>
      </g>
      <g>
        <path class="cls-4" d="M73.57,37.63l13.39,8.49"/>
        <path class="cls-5" d="M73.57,37.63l13.39,8.49"/>
      </g>
    </g>
    <g>
      <rect class="cls-2" x="7.09" y="17.76" width="104.21" height="78.92" rx="6.4" ry="6.4"/>
      <g>
        <path class="cls-4" d="M20.57,30l13.39,8.49"/>
        <path class="cls-5" d="M20.57,30l13.39,8.49"/>
      </g>
      <g>
        <path class="cls-4" d="M33.96,38.49l-13.39,8.49"/>
        <path class="cls-5" d="M33.96,38.49l-13.39,8.49"/>
      </g>
      <line class="cls-3" x1="42.23" y1="46.98" x2="65.89" y2="46.98"/>
      <g>
        <path class="cls-4" d="M86.86,29.04l-13.39,8.49"/>
        <path class="cls-5" d="M86.86,29.04l-13.39,8.49"/>
      </g>
      <g>
        <path class="cls-4" d="M73.47,37.53l13.39,8.49"/>
        <path class="cls-5" d="M73.47,37.53l13.39,8.49"/>
      </g>
    </g>
  </g>
  <g>
    <rect class="cls-2" x="7.09" y="17.76" width="104.21" height="78.92" rx="6.4" ry="6.4"/>
    <path class="cls-3" d="M20.57,30l13.39,8.49"/>
    <path class="cls-3" d="M33.96,38.49l-13.39,8.49"/>
    <line class="cls-3" x1="42.23" y1="46.98" x2="65.89" y2="46.98"/>
    <path class="cls-3" d="M86.86,29.04l-13.39,8.49"/>
    <path class="cls-3" d="M73.47,37.53l13.39,8.49"/>
  </g>
</svg>