<?xml version="1.0" encoding="UTF-8"?>
<svg id="Layer_2" data-name="Layer 2" xmlns="http://www.w3.org/2000/svg" viewBox="0 0 121.55 120.38">
  <defs>
    <style>
      .cls-1, .cls-2, .cls-3, .cls-4 {
        stroke-miterlimit: 10;
        stroke-width: 5px;
      }

      .cls-1, .cls-3 {
        stroke: #31322d;
      }

      .cls-1, .cls-4 {
        fill: none;
        stroke-linecap: round;
      }

      .cls-5 {
        opacity: .75;
      }

      .cls-2, .cls-3 {
        fill: #fff;
      }

      .cls-2, .cls-4 {
        stroke: #231f20;
      }
    </style>
  </defs>
  <g class="cls-5">
    <g>
      <rect class="cls-3" x="19.81" y="5.5" width="84.77" height="109.45" rx="7.8" ry="7.8"/>
      <line class="cls-1" x1="61.19" y1="20.44" x2="90.17" y2="20.44"/>
      <line class="cls-1" x1="67.45" y1="100.01" x2="90.17" y2="100.01"/>
      <g>
        <line class="cls-1" x1="33.57" y1="38.82" x2="66.77" y2="38.82"/>
        <line class="cls-1" x1="33.57" y1="48.01" x2="56.21" y2="48.01"/>
        <line class="cls-1" x1="33.49" y1="57.2" x2="70.26" y2="57.2"/>
        <line class="cls-1" x1="56.21" y1="29.63" x2="90.3" y2="29.63"/>
        <line class="cls-1" x1="33.32" y1="66.82" x2="51.87" y2="66.82"/>
        <line class="cls-1" x1="59.36" y1="66.82" x2="73.49" y2="66.82"/>
        <line class="cls-1" x1="80.3" y1="66.82" x2="90.17" y2="66.82"/>
        <line class="cls-1" x1="33.23" y1="77.88" x2="66.43" y2="77.88"/>
        <line class="cls-1" x1="73.83" y1="77.88" x2="90.17" y2="77.88"/>
        <line class="cls-1" x1="32.72" y1="88.95" x2="47.87" y2="88.95"/>
        <line class="cls-1" x1="32.3" y1="100.01" x2="60.55" y2="100.01"/>
        <line class="cls-1" x1="70.94" y1="88.95" x2="90.17" y2="88.95"/>
      </g>
      <line class="cls-1" x1="77.23" y1="38.82" x2="90.17" y2="38.82"/>
      <line class="cls-1" x1="66.77" y1="48.01" x2="90.17" y2="48.01"/>
      <circle class="cls-1" cx="39.54" cy="25.05" r="5.96"/>
    </g>
    <g>
      <rect class="cls-3" x="19.71" y="5.4" width="84.77" height="109.45" rx="7.8" ry="7.8"/>
      <line class="cls-1" x1="61.09" y1="20.34" x2="90.07" y2="20.34"/>
      <line class="cls-1" x1="67.35" y1="99.91" x2="90.07" y2="99.91"/>
      <g>
        <line class="cls-1" x1="33.47" y1="38.72" x2="66.67" y2="38.72"/>
        <line class="cls-1" x1="33.47" y1="47.91" x2="56.11" y2="47.91"/>
        <line class="cls-1" x1="33.39" y1="57.1" x2="70.16" y2="57.1"/>
        <line class="cls-1" x1="56.11" y1="29.53" x2="90.2" y2="29.53"/>
        <line class="cls-1" x1="33.22" y1="66.72" x2="51.77" y2="66.72"/>
        <line class="cls-1" x1="59.26" y1="66.72" x2="73.39" y2="66.72"/>
        <line class="cls-1" x1="80.2" y1="66.72" x2="90.07" y2="66.72"/>
        <line class="cls-1" x1="33.13" y1="77.78" x2="66.33" y2="77.78"/>
        <line class="cls-1" x1="73.73" y1="77.78" x2="90.07" y2="77.78"/>
        <line class="cls-1" x1="32.62" y1="88.85" x2="47.77" y2="88.85"/>
        <line class="cls-1" x1="32.2" y1="99.91" x2="60.45" y2="99.91"/>
        <line class="cls-1" x1="70.84" y1="88.85" x2="90.07" y2="88.85"/>
      </g>
      <line class="cls-1" x1="77.13" y1="38.72" x2="90.07" y2="38.72"/>
      <line class="cls-1" x1="66.67" y1="47.91" x2="90.07" y2="47.91"/>
      <circle class="cls-1" cx="39.44" cy="24.95" r="5.96"/>
    </g>
    <g>
      <rect class="cls-3" x="19.61" y="5.3" width="84.77" height="109.45" rx="7.8" ry="7.8"/>
      <line class="cls-1" x1="60.99" y1="20.24" x2="89.97" y2="20.24"/>
      <line class="cls-1" x1="67.25" y1="99.81" x2="89.97" y2="99.81"/>
      <g>
        <line class="cls-1" x1="33.37" y1="38.62" x2="66.57" y2="38.62"/>
        <line class="cls-1" x1="33.37" y1="47.81" x2="56.01" y2="47.81"/>
        <line class="cls-1" x1="33.29" y1="57" x2="70.06" y2="57"/>
        <line class="cls-1" x1="56.01" y1="29.43" x2="90.1" y2="29.43"/>
        <line class="cls-1" x1="33.12" y1="66.62" x2="51.67" y2="66.62"/>
        <line class="cls-1" x1="59.16" y1="66.62" x2="73.29" y2="66.62"/>
        <line class="cls-1" x1="80.1" y1="66.62" x2="89.97" y2="66.62"/>
        <line class="cls-1" x1="33.03" y1="77.68" x2="66.23" y2="77.68"/>
        <line class="cls-1" x1="73.63" y1="77.68" x2="89.97" y2="77.68"/>
        <line class="cls-1" x1="32.52" y1="88.75" x2="47.67" y2="88.75"/>
        <line class="cls-1" x1="32.1" y1="99.81" x2="60.35" y2="99.81"/>
        <line class="cls-1" x1="70.74" y1="88.75" x2="89.97" y2="88.75"/>
      </g>
      <line class="cls-1" x1="77.03" y1="38.62" x2="89.97" y2="38.62"/>
      <line class="cls-1" x1="66.57" y1="47.81" x2="89.97" y2="47.81"/>
      <circle class="cls-1" cx="39.34" cy="24.85" r="5.96"/>
    </g>
    <g>
      <rect class="cls-3" x="19.51" y="5.2" width="84.77" height="109.45" rx="7.8" ry="7.8"/>
      <line class="cls-1" x1="60.89" y1="20.14" x2="89.87" y2="20.14"/>
      <line class="cls-1" x1="67.15" y1="99.71" x2="89.87" y2="99.71"/>
      <g>
        <line class="cls-1" x1="33.27" y1="38.52" x2="66.47" y2="38.52"/>
        <line class="cls-1" x1="33.27" y1="47.71" x2="55.91" y2="47.71"/>
        <line class="cls-1" x1="33.19" y1="56.9" x2="69.96" y2="56.9"/>
        <line class="cls-1" x1="55.91" y1="29.33" x2="90" y2="29.33"/>
        <line class="cls-1" x1="33.02" y1="66.52" x2="51.57" y2="66.52"/>
        <line class="cls-1" x1="59.06" y1="66.52" x2="73.19" y2="66.52"/>
        <line class="cls-1" x1="80" y1="66.52" x2="89.87" y2="66.52"/>
        <line class="cls-1" x1="32.93" y1="77.58" x2="66.13" y2="77.58"/>
        <line class="cls-1" x1="73.53" y1="77.58" x2="89.87" y2="77.58"/>
        <line class="cls-1" x1="32.42" y1="88.65" x2="47.57" y2="88.65"/>
        <line class="cls-1" x1="32" y1="99.71" x2="60.25" y2="99.71"/>
        <line class="cls-1" x1="70.64" y1="88.65" x2="89.87" y2="88.65"/>
      </g>
      <line class="cls-1" x1="76.93" y1="38.52" x2="89.87" y2="38.52"/>
      <line class="cls-1" x1="66.47" y1="47.71" x2="89.87" y2="47.71"/>
      <circle class="cls-1" cx="39.24" cy="24.75" r="5.96"/>
    </g>
    <g>
      <rect class="cls-3" x="19.41" y="5.1" width="84.77" height="109.45" rx="7.8" ry="7.8"/>
      <line class="cls-1" x1="60.79" y1="20.04" x2="89.77" y2="20.04"/>
      <line class="cls-1" x1="67.05" y1="99.61" x2="89.77" y2="99.61"/>
      <g>
        <line class="cls-1" x1="33.17" y1="38.42" x2="66.37" y2="38.42"/>
        <line class="cls-1" x1="33.17" y1="47.61" x2="55.81" y2="47.61"/>
        <line class="cls-1" x1="33.09" y1="56.8" x2="69.86" y2="56.8"/>
        <line class="cls-1" x1="55.81" y1="29.23" x2="89.9" y2="29.23"/>
        <line class="cls-1" x1="32.92" y1="66.42" x2="51.47" y2="66.42"/>
        <line class="cls-1" x1="58.96" y1="66.42" x2="73.09" y2="66.42"/>
        <line class="cls-1" x1="79.9" y1="66.42" x2="89.77" y2="66.42"/>
        <line class="cls-1" x1="32.83" y1="77.48" x2="66.03" y2="77.48"/>
        <line class="cls-1" x1="73.43" y1="77.48" x2="89.77" y2="77.48"/>
        <line class="cls-1" x1="32.32" y1="88.55" x2="47.47" y2="88.55"/>
        <line class="cls-1" x1="31.9" y1="99.61" x2="60.15" y2="99.61"/>
        <line class="cls-1" x1="70.54" y1="88.55" x2="89.77" y2="88.55"/>
      </g>
      <line class="cls-1" x1="76.83" y1="38.42" x2="89.77" y2="38.42"/>
      <line class="cls-1" x1="66.37" y1="47.61" x2="89.77" y2="47.61"/>
      <circle class="cls-1" cx="39.14" cy="24.65" r="5.96"/>
    </g>
    <g>
      <rect class="cls-3" x="19.31" y="5" width="84.77" height="109.45" rx="7.8" ry="7.8"/>
      <line class="cls-1" x1="60.69" y1="19.94" x2="89.67" y2="19.94"/>
      <line class="cls-1" x1="66.95" y1="99.51" x2="89.67" y2="99.51"/>
      <g>
        <line class="cls-1" x1="33.07" y1="38.32" x2="66.27" y2="38.32"/>
        <line class="cls-1" x1="33.07" y1="47.51" x2="55.71" y2="47.51"/>
        <line class="cls-1" x1="32.99" y1="56.7" x2="69.76" y2="56.7"/>
        <line class="cls-1" x1="55.71" y1="29.13" x2="89.8" y2="29.13"/>
        <line class="cls-1" x1="32.82" y1="66.32" x2="51.37" y2="66.32"/>
        <line class="cls-1" x1="58.86" y1="66.32" x2="72.99" y2="66.32"/>
        <line class="cls-1" x1="79.8" y1="66.32" x2="89.67" y2="66.32"/>
        <line class="cls-1" x1="32.73" y1="77.38" x2="65.93" y2="77.38"/>
        <line class="cls-1" x1="73.33" y1="77.38" x2="89.67" y2="77.38"/>
        <line class="cls-1" x1="32.22" y1="88.45" x2="47.37" y2="88.45"/>
        <line class="cls-1" x1="31.8" y1="99.51" x2="60.05" y2="99.51"/>
        <line class="cls-1" x1="70.44" y1="88.45" x2="89.67" y2="88.45"/>
      </g>
      <line class="cls-1" x1="76.73" y1="38.32" x2="89.67" y2="38.32"/>
      <line class="cls-1" x1="66.27" y1="47.51" x2="89.67" y2="47.51"/>
      <circle class="cls-1" cx="39.04" cy="24.55" r="5.96"/>
    </g>
    <g>
      <rect class="cls-3" x="19.21" y="4.9" width="84.77" height="109.45" rx="7.8" ry="7.8"/>
      <line class="cls-1" x1="60.59" y1="19.84" x2="89.57" y2="19.84"/>
      <line class="cls-1" x1="66.85" y1="99.41" x2="89.57" y2="99.41"/>
      <g>
        <line class="cls-1" x1="32.97" y1="38.22" x2="66.17" y2="38.22"/>
        <line class="cls-1" x1="32.97" y1="47.41" x2="55.61" y2="47.41"/>
        <line class="cls-1" x1="32.89" y1="56.6" x2="69.66" y2="56.6"/>
        <line class="cls-1" x1="55.61" y1="29.03" x2="89.7" y2="29.03"/>
        <line class="cls-1" x1="32.72" y1="66.22" x2="51.27" y2="66.22"/>
        <line class="cls-1" x1="58.76" y1="66.22" x2="72.89" y2="66.22"/>
        <line class="cls-1" x1="79.7" y1="66.22" x2="89.57" y2="66.22"/>
        <line class="cls-1" x1="32.63" y1="77.28" x2="65.83" y2="77.28"/>
        <line class="cls-1" x1="73.23" y1="77.28" x2="89.57" y2="77.28"/>
        <line class="cls-1" x1="32.12" y1="88.35" x2="47.27" y2="88.35"/>
        <line class="cls-1" x1="31.7" y1="99.41" x2="59.95" y2="99.41"/>
        <line class="cls-1" x1="70.34" y1="88.35" x2="89.57" y2="88.35"/>
      </g>
      <line class="cls-1" x1="76.63" y1="38.22" x2="89.57" y2="38.22"/>
      <line class="cls-1" x1="66.17" y1="47.41" x2="89.57" y2="47.41"/>
      <circle class="cls-1" cx="38.94" cy="24.45" r="5.96"/>
    </g>
    <g>
      <rect class="cls-3" x="19.11" y="4.8" width="84.77" height="109.45" rx="7.8" ry="7.8"/>
      <line class="cls-1" x1="60.49" y1="19.74" x2="89.47" y2="19.74"/>
      <line class="cls-1" x1="66.75" y1="99.31" x2="89.47" y2="99.31"/>
      <g>
        <line class="cls-1" x1="32.87" y1="38.12" x2="66.07" y2="38.12"/>
        <line class="cls-1" x1="32.87" y1="47.31" x2="55.51" y2="47.31"/>
        <line class="cls-1" x1="32.79" y1="56.5" x2="69.56" y2="56.5"/>
        <line class="cls-1" x1="55.51" y1="28.93" x2="89.6" y2="28.93"/>
        <line class="cls-1" x1="32.62" y1="66.12" x2="51.17" y2="66.12"/>
        <line class="cls-1" x1="58.66" y1="66.12" x2="72.79" y2="66.12"/>
        <line class="cls-1" x1="79.6" y1="66.12" x2="89.47" y2="66.12"/>
        <line class="cls-1" x1="32.53" y1="77.18" x2="65.73" y2="77.18"/>
        <line class="cls-1" x1="73.13" y1="77.18" x2="89.47" y2="77.18"/>
        <line class="cls-1" x1="32.02" y1="88.25" x2="47.17" y2="88.25"/>
        <line class="cls-1" x1="31.6" y1="99.31" x2="59.85" y2="99.31"/>
        <line class="cls-1" x1="70.24" y1="88.25" x2="89.47" y2="88.25"/>
      </g>
      <line class="cls-1" x1="76.53" y1="38.12" x2="89.47" y2="38.12"/>
      <line class="cls-1" x1="66.07" y1="47.31" x2="89.47" y2="47.31"/>
      <circle class="cls-1" cx="38.84" cy="24.35" r="5.96"/>
    </g>
    <g>
      <rect class="cls-3" x="19.01" y="4.7" width="84.77" height="109.45" rx="7.8" ry="7.8"/>
      <line class="cls-1" x1="60.39" y1="19.64" x2="89.37" y2="19.64"/>
      <line class="cls-1" x1="66.65" y1="99.21" x2="89.37" y2="99.21"/>
      <g>
        <line class="cls-1" x1="32.77" y1="38.02" x2="65.97" y2="38.02"/>
        <line class="cls-1" x1="32.77" y1="47.21" x2="55.41" y2="47.21"/>
        <line class="cls-1" x1="32.69" y1="56.4" x2="69.46" y2="56.4"/>
        <line class="cls-1" x1="55.41" y1="28.83" x2="89.5" y2="28.83"/>
        <line class="cls-1" x1="32.52" y1="66.02" x2="51.07" y2="66.02"/>
        <line class="cls-1" x1="58.56" y1="66.02" x2="72.69" y2="66.02"/>
        <line class="cls-1" x1="79.5" y1="66.02" x2="89.37" y2="66.02"/>
        <line class="cls-1" x1="32.43" y1="77.08" x2="65.63" y2="77.08"/>
        <line class="cls-1" x1="73.03" y1="77.08" x2="89.37" y2="77.08"/>
        <line class="cls-1" x1="31.92" y1="88.15" x2="47.07" y2="88.15"/>
        <line class="cls-1" x1="31.5" y1="99.21" x2="59.75" y2="99.21"/>
        <line class="cls-1" x1="70.14" y1="88.15" x2="89.37" y2="88.15"/>
      </g>
      <line class="cls-1" x1="76.43" y1="38.02" x2="89.37" y2="38.02"/>
      <line class="cls-1" x1="65.97" y1="47.21" x2="89.37" y2="47.21"/>
      <circle class="cls-1" cx="38.74" cy="24.25" r="5.96"/>
    </g>
    <g>
      <rect class="cls-3" x="18.91" y="4.6" width="84.77" height="109.45" rx="7.8" ry="7.8"/>
      <line class="cls-1" x1="60.29" y1="19.54" x2="89.27" y2="19.54"/>
      <line class="cls-1" x1="66.55" y1="99.11" x2="89.27" y2="99.11"/>
      <g>
        <line class="cls-1" x1="32.67" y1="37.92" x2="65.87" y2="37.92"/>
        <line class="cls-1" x1="32.67" y1="47.11" x2="55.31" y2="47.11"/>
        <line class="cls-1" x1="32.59" y1="56.3" x2="69.36" y2="56.3"/>
        <line class="cls-1" x1="55.31" y1="28.73" x2="89.4" y2="28.73"/>
        <line class="cls-1" x1="32.42" y1="65.92" x2="50.97" y2="65.92"/>
        <line class="cls-1" x1="58.46" y1="65.92" x2="72.59" y2="65.92"/>
        <line class="cls-1" x1="79.4" y1="65.92" x2="89.27" y2="65.92"/>
        <line class="cls-1" x1="32.33" y1="76.98" x2="65.53" y2="76.98"/>
        <line class="cls-1" x1="72.93" y1="76.98" x2="89.27" y2="76.98"/>
        <line class="cls-1" x1="31.82" y1="88.05" x2="46.97" y2="88.05"/>
        <line class="cls-1" x1="31.4" y1="99.11" x2="59.65" y2="99.11"/>
        <line class="cls-1" x1="70.04" y1="88.05" x2="89.27" y2="88.05"/>
      </g>
      <line class="cls-1" x1="76.33" y1="37.92" x2="89.27" y2="37.92"/>
      <line class="cls-1" x1="65.87" y1="47.11" x2="89.27" y2="47.11"/>
      <circle class="cls-1" cx="38.64" cy="24.15" r="5.96"/>
    </g>
    <g>
      <rect class="cls-3" x="18.81" y="4.5" width="84.77" height="109.45" rx="7.8" ry="7.8"/>
      <line class="cls-1" x1="60.19" y1="19.44" x2="89.17" y2="19.44"/>
      <line class="cls-1" x1="66.45" y1="99.01" x2="89.17" y2="99.01"/>
      <g>
        <line class="cls-1" x1="32.57" y1="37.82" x2="65.77" y2="37.82"/>
        <line class="cls-1" x1="32.57" y1="47.01" x2="55.21" y2="47.01"/>
        <line class="cls-1" x1="32.49" y1="56.2" x2="69.26" y2="56.2"/>
        <line class="cls-1" x1="55.21" y1="28.63" x2="89.3" y2="28.63"/>
        <line class="cls-1" x1="32.32" y1="65.82" x2="50.87" y2="65.82"/>
        <line class="cls-1" x1="58.36" y1="65.82" x2="72.49" y2="65.82"/>
        <line class="cls-1" x1="79.3" y1="65.82" x2="89.17" y2="65.82"/>
        <line class="cls-1" x1="32.23" y1="76.88" x2="65.43" y2="76.88"/>
        <line class="cls-1" x1="72.83" y1="76.88" x2="89.17" y2="76.88"/>
        <line class="cls-1" x1="31.72" y1="87.95" x2="46.87" y2="87.95"/>
        <line class="cls-1" x1="31.3" y1="99.01" x2="59.55" y2="99.01"/>
        <line class="cls-1" x1="69.94" y1="87.95" x2="89.17" y2="87.95"/>
      </g>
      <line class="cls-1" x1="76.23" y1="37.82" x2="89.17" y2="37.82"/>
      <line class="cls-1" x1="65.77" y1="47.01" x2="89.17" y2="47.01"/>
      <circle class="cls-1" cx="38.54" cy="24.05" r="5.96"/>
    </g>
    <g>
      <rect class="cls-3" x="18.71" y="4.4" width="84.77" height="109.45" rx="7.8" ry="7.8"/>
      <line class="cls-1" x1="60.09" y1="19.34" x2="89.07" y2="19.34"/>
      <line class="cls-1" x1="66.35" y1="98.91" x2="89.07" y2="98.91"/>
      <g>
        <line class="cls-1" x1="32.47" y1="37.72" x2="65.67" y2="37.72"/>
        <line class="cls-1" x1="32.47" y1="46.91" x2="55.11" y2="46.91"/>
        <line class="cls-1" x1="32.39" y1="56.1" x2="69.16" y2="56.1"/>
        <line class="cls-1" x1="55.11" y1="28.53" x2="89.2" y2="28.53"/>
        <line class="cls-1" x1="32.22" y1="65.72" x2="50.77" y2="65.72"/>
        <line class="cls-1" x1="58.26" y1="65.72" x2="72.39" y2="65.72"/>
        <line class="cls-1" x1="79.2" y1="65.72" x2="89.07" y2="65.72"/>
        <line class="cls-1" x1="32.13" y1="76.78" x2="65.33" y2="76.78"/>
        <line class="cls-1" x1="72.73" y1="76.78" x2="89.07" y2="76.78"/>
        <line class="cls-1" x1="31.62" y1="87.85" x2="46.77" y2="87.85"/>
        <line class="cls-1" x1="31.2" y1="98.91" x2="59.45" y2="98.91"/>
        <line class="cls-1" x1="69.84" y1="87.85" x2="89.07" y2="87.85"/>
      </g>
      <line class="cls-1" x1="76.13" y1="37.72" x2="89.07" y2="37.72"/>
      <line class="cls-1" x1="65.67" y1="46.91" x2="89.07" y2="46.91"/>
      <circle class="cls-1" cx="38.44" cy="23.95" r="5.96"/>
    </g>
    <g>
      <rect class="cls-3" x="18.61" y="4.3" width="84.77" height="109.45" rx="7.8" ry="7.8"/>
      <line class="cls-1" x1="59.99" y1="19.24" x2="88.97" y2="19.24"/>
      <line class="cls-1" x1="66.25" y1="98.81" x2="88.97" y2="98.81"/>
      <g>
        <line class="cls-1" x1="32.37" y1="37.62" x2="65.57" y2="37.62"/>
        <line class="cls-1" x1="32.37" y1="46.81" x2="55.01" y2="46.81"/>
        <line class="cls-1" x1="32.29" y1="56" x2="69.06" y2="56"/>
        <line class="cls-1" x1="55.01" y1="28.43" x2="89.1" y2="28.43"/>
        <line class="cls-1" x1="32.12" y1="65.62" x2="50.67" y2="65.62"/>
        <line class="cls-1" x1="58.16" y1="65.62" x2="72.29" y2="65.62"/>
        <line class="cls-1" x1="79.1" y1="65.62" x2="88.97" y2="65.62"/>
        <line class="cls-1" x1="32.03" y1="76.68" x2="65.23" y2="76.68"/>
        <line class="cls-1" x1="72.63" y1="76.68" x2="88.97" y2="76.68"/>
        <line class="cls-1" x1="31.52" y1="87.75" x2="46.67" y2="87.75"/>
        <line class="cls-1" x1="31.1" y1="98.81" x2="59.35" y2="98.81"/>
        <line class="cls-1" x1="69.74" y1="87.75" x2="88.97" y2="87.75"/>
      </g>
      <line class="cls-1" x1="76.03" y1="37.62" x2="88.97" y2="37.62"/>
      <line class="cls-1" x1="65.57" y1="46.81" x2="88.97" y2="46.81"/>
      <circle class="cls-1" cx="38.34" cy="23.85" r="5.96"/>
    </g>
    <g>
      <rect class="cls-3" x="18.51" y="4.2" width="84.77" height="109.45" rx="7.8" ry="7.8"/>
      <line class="cls-1" x1="59.89" y1="19.14" x2="88.87" y2="19.14"/>
      <line class="cls-1" x1="66.15" y1="98.71" x2="88.87" y2="98.71"/>
      <g>
        <line class="cls-1" x1="32.27" y1="37.52" x2="65.47" y2="37.52"/>
        <line class="cls-1" x1="32.27" y1="46.71" x2="54.91" y2="46.71"/>
        <line class="cls-1" x1="32.19" y1="55.9" x2="68.96" y2="55.9"/>
        <line class="cls-1" x1="54.91" y1="28.33" x2="89" y2="28.33"/>
        <line class="cls-1" x1="32.02" y1="65.52" x2="50.57" y2="65.52"/>
        <line class="cls-1" x1="58.06" y1="65.52" x2="72.19" y2="65.52"/>
        <line class="cls-1" x1="79" y1="65.52" x2="88.87" y2="65.52"/>
        <line class="cls-1" x1="31.93" y1="76.58" x2="65.13" y2="76.58"/>
        <line class="cls-1" x1="72.53" y1="76.58" x2="88.87" y2="76.58"/>
        <line class="cls-1" x1="31.42" y1="87.65" x2="46.57" y2="87.65"/>
        <line class="cls-1" x1="31" y1="98.71" x2="59.25" y2="98.71"/>
        <line class="cls-1" x1="69.64" y1="87.65" x2="88.87" y2="87.65"/>
      </g>
      <line class="cls-1" x1="75.93" y1="37.52" x2="88.87" y2="37.52"/>
      <line class="cls-1" x1="65.47" y1="46.71" x2="88.87" y2="46.71"/>
      <circle class="cls-1" cx="38.24" cy="23.75" r="5.96"/>
    </g>
    <g>
      <rect class="cls-3" x="18.41" y="4.1" width="84.77" height="109.45" rx="7.8" ry="7.8"/>
      <line class="cls-1" x1="59.79" y1="19.04" x2="88.77" y2="19.04"/>
      <line class="cls-1" x1="66.05" y1="98.61" x2="88.77" y2="98.61"/>
      <g>
        <line class="cls-1" x1="32.17" y1="37.42" x2="65.37" y2="37.42"/>
        <line class="cls-1" x1="32.17" y1="46.61" x2="54.81" y2="46.61"/>
        <line class="cls-1" x1="32.09" y1="55.8" x2="68.86" y2="55.8"/>
        <line class="cls-1" x1="54.81" y1="28.23" x2="88.9" y2="28.23"/>
        <line class="cls-1" x1="31.92" y1="65.42" x2="50.47" y2="65.42"/>
        <line class="cls-1" x1="57.96" y1="65.42" x2="72.09" y2="65.42"/>
        <line class="cls-1" x1="78.9" y1="65.42" x2="88.77" y2="65.42"/>
        <line class="cls-1" x1="31.83" y1="76.48" x2="65.03" y2="76.48"/>
        <line class="cls-1" x1="72.43" y1="76.48" x2="88.77" y2="76.48"/>
        <line class="cls-1" x1="31.32" y1="87.55" x2="46.47" y2="87.55"/>
        <line class="cls-1" x1="30.9" y1="98.61" x2="59.15" y2="98.61"/>
        <line class="cls-1" x1="69.54" y1="87.55" x2="88.77" y2="87.55"/>
      </g>
      <line class="cls-1" x1="75.83" y1="37.42" x2="88.77" y2="37.42"/>
      <line class="cls-1" x1="65.37" y1="46.61" x2="88.77" y2="46.61"/>
      <circle class="cls-1" cx="38.14" cy="23.65" r="5.96"/>
    </g>
    <g>
      <rect class="cls-3" x="18.31" y="4" width="84.77" height="109.45" rx="7.8" ry="7.8"/>
      <line class="cls-1" x1="59.69" y1="18.94" x2="88.67" y2="18.94"/>
      <line class="cls-1" x1="65.95" y1="98.51" x2="88.67" y2="98.51"/>
      <g>
        <line class="cls-1" x1="32.07" y1="37.32" x2="65.27" y2="37.32"/>
        <line class="cls-1" x1="32.07" y1="46.51" x2="54.71" y2="46.51"/>
        <line class="cls-1" x1="31.99" y1="55.7" x2="68.76" y2="55.7"/>
        <line class="cls-1" x1="54.71" y1="28.13" x2="88.8" y2="28.13"/>
        <line class="cls-1" x1="31.82" y1="65.32" x2="50.37" y2="65.32"/>
        <line class="cls-1" x1="57.86" y1="65.32" x2="71.99" y2="65.32"/>
        <line class="cls-1" x1="78.8" y1="65.32" x2="88.67" y2="65.32"/>
        <line class="cls-1" x1="31.73" y1="76.38" x2="64.93" y2="76.38"/>
        <line class="cls-1" x1="72.33" y1="76.38" x2="88.67" y2="76.38"/>
        <line class="cls-1" x1="31.22" y1="87.45" x2="46.37" y2="87.45"/>
        <line class="cls-1" x1="30.8" y1="98.51" x2="59.05" y2="98.51"/>
        <line class="cls-1" x1="69.44" y1="87.45" x2="88.67" y2="87.45"/>
      </g>
      <line class="cls-1" x1="75.73" y1="37.32" x2="88.67" y2="37.32"/>
      <line class="cls-1" x1="65.27" y1="46.51" x2="88.67" y2="46.51"/>
      <circle class="cls-1" cx="38.04" cy="23.55" r="5.96"/>
    </g>
    <g>
      <rect class="cls-3" x="18.21" y="3.9" width="84.77" height="109.45" rx="7.8" ry="7.8"/>
      <line class="cls-1" x1="59.59" y1="18.84" x2="88.57" y2="18.84"/>
      <line class="cls-1" x1="65.85" y1="98.41" x2="88.57" y2="98.41"/>
      <g>
        <line class="cls-1" x1="31.97" y1="37.22" x2="65.17" y2="37.22"/>
        <line class="cls-1" x1="31.97" y1="46.41" x2="54.61" y2="46.41"/>
        <line class="cls-1" x1="31.89" y1="55.6" x2="68.66" y2="55.6"/>
        <line class="cls-1" x1="54.61" y1="28.03" x2="88.7" y2="28.03"/>
        <line class="cls-1" x1="31.72" y1="65.22" x2="50.27" y2="65.22"/>
        <line class="cls-1" x1="57.76" y1="65.22" x2="71.89" y2="65.22"/>
        <line class="cls-1" x1="78.7" y1="65.22" x2="88.57" y2="65.22"/>
        <line class="cls-1" x1="31.63" y1="76.28" x2="64.83" y2="76.28"/>
        <line class="cls-1" x1="72.23" y1="76.28" x2="88.57" y2="76.28"/>
        <line class="cls-1" x1="31.12" y1="87.35" x2="46.27" y2="87.35"/>
        <line class="cls-1" x1="30.7" y1="98.41" x2="58.95" y2="98.41"/>
        <line class="cls-1" x1="69.34" y1="87.35" x2="88.57" y2="87.35"/>
      </g>
      <line class="cls-1" x1="75.63" y1="37.22" x2="88.57" y2="37.22"/>
      <line class="cls-1" x1="65.17" y1="46.41" x2="88.57" y2="46.41"/>
      <circle class="cls-1" cx="37.94" cy="23.45" r="5.96"/>
    </g>
    <g>
      <rect class="cls-3" x="18.11" y="3.8" width="84.77" height="109.45" rx="7.8" ry="7.8"/>
      <line class="cls-1" x1="59.49" y1="18.74" x2="88.47" y2="18.74"/>
      <line class="cls-1" x1="65.75" y1="98.31" x2="88.47" y2="98.31"/>
      <g>
        <line class="cls-1" x1="31.87" y1="37.12" x2="65.07" y2="37.12"/>
        <line class="cls-1" x1="31.87" y1="46.31" x2="54.51" y2="46.31"/>
        <line class="cls-1" x1="31.79" y1="55.5" x2="68.56" y2="55.5"/>
        <line class="cls-1" x1="54.51" y1="27.93" x2="88.6" y2="27.93"/>
        <line class="cls-1" x1="31.62" y1="65.12" x2="50.17" y2="65.12"/>
        <line class="cls-1" x1="57.66" y1="65.12" x2="71.79" y2="65.12"/>
        <line class="cls-1" x1="78.6" y1="65.12" x2="88.47" y2="65.12"/>
        <line class="cls-1" x1="31.53" y1="76.18" x2="64.73" y2="76.18"/>
        <line class="cls-1" x1="72.13" y1="76.18" x2="88.47" y2="76.18"/>
        <line class="cls-1" x1="31.02" y1="87.25" x2="46.17" y2="87.25"/>
        <line class="cls-1" x1="30.6" y1="98.31" x2="58.85" y2="98.31"/>
        <line class="cls-1" x1="69.24" y1="87.25" x2="88.47" y2="87.25"/>
      </g>
      <line class="cls-1" x1="75.53" y1="37.12" x2="88.47" y2="37.12"/>
      <line class="cls-1" x1="65.07" y1="46.31" x2="88.47" y2="46.31"/>
      <circle class="cls-1" cx="37.84" cy="23.35" r="5.96"/>
    </g>
    <g>
      <rect class="cls-3" x="18.01" y="3.7" width="84.77" height="109.45" rx="7.8" ry="7.8"/>
      <line class="cls-1" x1="59.39" y1="18.64" x2="88.37" y2="18.64"/>
      <line class="cls-1" x1="65.65" y1="98.21" x2="88.37" y2="98.21"/>
      <g>
        <line class="cls-1" x1="31.77" y1="37.02" x2="64.97" y2="37.02"/>
        <line class="cls-1" x1="31.77" y1="46.21" x2="54.41" y2="46.21"/>
        <line class="cls-1" x1="31.69" y1="55.4" x2="68.46" y2="55.4"/>
        <line class="cls-1" x1="54.41" y1="27.83" x2="88.5" y2="27.83"/>
        <line class="cls-1" x1="31.52" y1="65.02" x2="50.07" y2="65.02"/>
        <line class="cls-1" x1="57.56" y1="65.02" x2="71.69" y2="65.02"/>
        <line class="cls-1" x1="78.5" y1="65.02" x2="88.37" y2="65.02"/>
        <line class="cls-1" x1="31.43" y1="76.08" x2="64.63" y2="76.08"/>
        <line class="cls-1" x1="72.03" y1="76.08" x2="88.37" y2="76.08"/>
        <line class="cls-1" x1="30.92" y1="87.15" x2="46.07" y2="87.15"/>
        <line class="cls-1" x1="30.5" y1="98.21" x2="58.75" y2="98.21"/>
        <line class="cls-1" x1="69.14" y1="87.15" x2="88.37" y2="87.15"/>
      </g>
      <line class="cls-1" x1="75.43" y1="37.02" x2="88.37" y2="37.02"/>
      <line class="cls-1" x1="64.97" y1="46.21" x2="88.37" y2="46.21"/>
      <circle class="cls-1" cx="37.74" cy="23.25" r="5.96"/>
    </g>
    <g>
      <rect class="cls-3" x="17.91" y="3.6" width="84.77" height="109.45" rx="7.8" ry="7.8"/>
      <line class="cls-1" x1="59.29" y1="18.54" x2="88.27" y2="18.54"/>
      <line class="cls-1" x1="65.55" y1="98.11" x2="88.27" y2="98.11"/>
      <g>
        <line class="cls-1" x1="31.67" y1="36.92" x2="64.87" y2="36.92"/>
        <line class="cls-1" x1="31.67" y1="46.11" x2="54.31" y2="46.11"/>
        <line class="cls-1" x1="31.59" y1="55.3" x2="68.36" y2="55.3"/>
        <line class="cls-1" x1="54.31" y1="27.73" x2="88.4" y2="27.73"/>
        <line class="cls-1" x1="31.42" y1="64.92" x2="49.97" y2="64.92"/>
        <line class="cls-1" x1="57.46" y1="64.92" x2="71.59" y2="64.92"/>
        <line class="cls-1" x1="78.4" y1="64.92" x2="88.27" y2="64.92"/>
        <line class="cls-1" x1="31.33" y1="75.98" x2="64.53" y2="75.98"/>
        <line class="cls-1" x1="71.93" y1="75.98" x2="88.27" y2="75.98"/>
        <line class="cls-1" x1="30.82" y1="87.05" x2="45.97" y2="87.05"/>
        <line class="cls-1" x1="30.4" y1="98.11" x2="58.65" y2="98.11"/>
        <line class="cls-1" x1="69.04" y1="87.05" x2="88.27" y2="87.05"/>
      </g>
      <line class="cls-1" x1="75.33" y1="36.92" x2="88.27" y2="36.92"/>
      <line class="cls-1" x1="64.87" y1="46.11" x2="88.27" y2="46.11"/>
      <circle class="cls-1" cx="37.64" cy="23.15" r="5.96"/>
    </g>
    <g>
      <rect class="cls-3" x="17.81" y="3.5" width="84.77" height="109.45" rx="7.8" ry="7.8"/>
      <line class="cls-1" x1="59.19" y1="18.44" x2="88.17" y2="18.44"/>
      <line class="cls-1" x1="65.45" y1="98.01" x2="88.17" y2="98.01"/>
      <g>
        <line class="cls-1" x1="31.57" y1="36.82" x2="64.77" y2="36.82"/>
        <line class="cls-1" x1="31.57" y1="46.01" x2="54.21" y2="46.01"/>
        <line class="cls-1" x1="31.49" y1="55.2" x2="68.26" y2="55.2"/>
        <line class="cls-1" x1="54.21" y1="27.63" x2="88.3" y2="27.63"/>
        <line class="cls-1" x1="31.32" y1="64.82" x2="49.87" y2="64.82"/>
        <line class="cls-1" x1="57.36" y1="64.82" x2="71.49" y2="64.82"/>
        <line class="cls-1" x1="78.3" y1="64.82" x2="88.17" y2="64.82"/>
        <line class="cls-1" x1="31.23" y1="75.88" x2="64.43" y2="75.88"/>
        <line class="cls-1" x1="71.83" y1="75.88" x2="88.17" y2="75.88"/>
        <line class="cls-1" x1="30.72" y1="86.95" x2="45.87" y2="86.95"/>
        <line class="cls-1" x1="30.3" y1="98.01" x2="58.55" y2="98.01"/>
        <line class="cls-1" x1="68.94" y1="86.95" x2="88.17" y2="86.95"/>
      </g>
      <line class="cls-1" x1="75.23" y1="36.82" x2="88.17" y2="36.82"/>
      <line class="cls-1" x1="64.77" y1="46.01" x2="88.17" y2="46.01"/>
      <circle class="cls-1" cx="37.54" cy="23.05" r="5.96"/>
    </g>
    <g>
      <rect class="cls-3" x="17.71" y="3.4" width="84.77" height="109.45" rx="7.8" ry="7.8"/>
      <line class="cls-1" x1="59.09" y1="18.34" x2="88.07" y2="18.34"/>
      <line class="cls-1" x1="65.35" y1="97.91" x2="88.07" y2="97.91"/>
      <g>
        <line class="cls-1" x1="31.47" y1="36.72" x2="64.67" y2="36.72"/>
        <line class="cls-1" x1="31.47" y1="45.91" x2="54.11" y2="45.91"/>
        <line class="cls-1" x1="31.39" y1="55.1" x2="68.16" y2="55.1"/>
        <line class="cls-1" x1="54.11" y1="27.53" x2="88.2" y2="27.53"/>
        <line class="cls-1" x1="31.22" y1="64.72" x2="49.77" y2="64.72"/>
        <line class="cls-1" x1="57.26" y1="64.72" x2="71.39" y2="64.72"/>
        <line class="cls-1" x1="78.2" y1="64.72" x2="88.07" y2="64.72"/>
        <line class="cls-1" x1="31.13" y1="75.78" x2="64.33" y2="75.78"/>
        <line class="cls-1" x1="71.73" y1="75.78" x2="88.07" y2="75.78"/>
        <line class="cls-1" x1="30.62" y1="86.85" x2="45.77" y2="86.85"/>
        <line class="cls-1" x1="30.2" y1="97.91" x2="58.45" y2="97.91"/>
        <line class="cls-1" x1="68.84" y1="86.85" x2="88.07" y2="86.85"/>
      </g>
      <line class="cls-1" x1="75.13" y1="36.72" x2="88.07" y2="36.72"/>
      <line class="cls-1" x1="64.67" y1="45.91" x2="88.07" y2="45.91"/>
      <circle class="cls-1" cx="37.44" cy="22.95" r="5.96"/>
    </g>
    <g>
      <rect class="cls-3" x="17.61" y="3.3" width="84.77" height="109.45" rx="7.8" ry="7.8"/>
      <line class="cls-1" x1="58.99" y1="18.24" x2="87.97" y2="18.24"/>
      <line class="cls-1" x1="65.25" y1="97.81" x2="87.97" y2="97.81"/>
      <g>
        <line class="cls-1" x1="31.37" y1="36.62" x2="64.57" y2="36.62"/>
        <line class="cls-1" x1="31.37" y1="45.81" x2="54.01" y2="45.81"/>
        <line class="cls-1" x1="31.29" y1="55" x2="68.06" y2="55"/>
        <line class="cls-1" x1="54.01" y1="27.43" x2="88.1" y2="27.43"/>
        <line class="cls-1" x1="31.12" y1="64.62" x2="49.67" y2="64.62"/>
        <line class="cls-1" x1="57.16" y1="64.62" x2="71.29" y2="64.62"/>
        <line class="cls-1" x1="78.1" y1="64.62" x2="87.97" y2="64.62"/>
        <line class="cls-1" x1="31.03" y1="75.68" x2="64.23" y2="75.68"/>
        <line class="cls-1" x1="71.63" y1="75.68" x2="87.97" y2="75.68"/>
        <line class="cls-1" x1="30.52" y1="86.75" x2="45.67" y2="86.75"/>
        <line class="cls-1" x1="30.1" y1="97.81" x2="58.35" y2="97.81"/>
        <line class="cls-1" x1="68.74" y1="86.75" x2="87.97" y2="86.75"/>
      </g>
      <line class="cls-1" x1="75.03" y1="36.62" x2="87.97" y2="36.62"/>
      <line class="cls-1" x1="64.57" y1="45.81" x2="87.97" y2="45.81"/>
      <circle class="cls-1" cx="37.34" cy="22.85" r="5.96"/>
    </g>
    <g>
      <rect class="cls-3" x="17.51" y="3.2" width="84.77" height="109.45" rx="7.8" ry="7.8"/>
      <line class="cls-1" x1="58.89" y1="18.14" x2="87.87" y2="18.14"/>
      <line class="cls-1" x1="65.15" y1="97.71" x2="87.87" y2="97.71"/>
      <g>
        <line class="cls-1" x1="31.27" y1="36.52" x2="64.47" y2="36.52"/>
        <line class="cls-1" x1="31.27" y1="45.71" x2="53.91" y2="45.71"/>
        <line class="cls-1" x1="31.19" y1="54.9" x2="67.96" y2="54.9"/>
        <line class="cls-1" x1="53.91" y1="27.33" x2="88" y2="27.33"/>
        <line class="cls-1" x1="31.02" y1="64.52" x2="49.57" y2="64.52"/>
        <line class="cls-1" x1="57.06" y1="64.52" x2="71.19" y2="64.52"/>
        <line class="cls-1" x1="78" y1="64.52" x2="87.87" y2="64.52"/>
        <line class="cls-1" x1="30.93" y1="75.58" x2="64.13" y2="75.58"/>
        <line class="cls-1" x1="71.53" y1="75.58" x2="87.87" y2="75.58"/>
        <line class="cls-1" x1="30.42" y1="86.65" x2="45.57" y2="86.65"/>
        <line class="cls-1" x1="30" y1="97.71" x2="58.25" y2="97.71"/>
        <line class="cls-1" x1="68.64" y1="86.65" x2="87.87" y2="86.65"/>
      </g>
      <line class="cls-1" x1="74.93" y1="36.52" x2="87.87" y2="36.52"/>
      <line class="cls-1" x1="64.47" y1="45.71" x2="87.87" y2="45.71"/>
      <circle class="cls-1" cx="37.24" cy="22.75" r="5.96"/>
    </g>
    <g>
      <rect class="cls-3" x="17.41" y="3.1" width="84.77" height="109.45" rx="7.8" ry="7.8"/>
      <line class="cls-1" x1="58.79" y1="18.04" x2="87.77" y2="18.04"/>
      <line class="cls-1" x1="65.05" y1="97.61" x2="87.77" y2="97.61"/>
      <g>
        <line class="cls-1" x1="31.17" y1="36.42" x2="64.37" y2="36.42"/>
        <line class="cls-1" x1="31.17" y1="45.61" x2="53.81" y2="45.61"/>
        <line class="cls-1" x1="31.09" y1="54.8" x2="67.86" y2="54.8"/>
        <line class="cls-1" x1="53.81" y1="27.23" x2="87.9" y2="27.23"/>
        <line class="cls-1" x1="30.92" y1="64.42" x2="49.47" y2="64.42"/>
        <line class="cls-1" x1="56.96" y1="64.42" x2="71.09" y2="64.42"/>
        <line class="cls-1" x1="77.9" y1="64.42" x2="87.77" y2="64.42"/>
        <line class="cls-1" x1="30.83" y1="75.48" x2="64.03" y2="75.48"/>
        <line class="cls-1" x1="71.43" y1="75.48" x2="87.77" y2="75.48"/>
        <line class="cls-1" x1="30.32" y1="86.55" x2="45.47" y2="86.55"/>
        <line class="cls-1" x1="29.9" y1="97.61" x2="58.15" y2="97.61"/>
        <line class="cls-1" x1="68.54" y1="86.55" x2="87.77" y2="86.55"/>
      </g>
      <line class="cls-1" x1="74.83" y1="36.42" x2="87.77" y2="36.42"/>
      <line class="cls-1" x1="64.37" y1="45.61" x2="87.77" y2="45.61"/>
      <circle class="cls-1" cx="37.14" cy="22.65" r="5.96"/>
    </g>
    <g>
      <rect class="cls-3" x="17.31" y="3" width="84.77" height="109.45" rx="7.8" ry="7.8"/>
      <line class="cls-1" x1="58.69" y1="17.94" x2="87.67" y2="17.94"/>
      <line class="cls-1" x1="64.95" y1="97.51" x2="87.67" y2="97.51"/>
      <g>
        <line class="cls-1" x1="31.07" y1="36.32" x2="64.27" y2="36.32"/>
        <line class="cls-1" x1="31.07" y1="45.51" x2="53.71" y2="45.51"/>
        <line class="cls-1" x1="30.99" y1="54.7" x2="67.76" y2="54.7"/>
        <line class="cls-1" x1="53.71" y1="27.13" x2="87.8" y2="27.13"/>
        <line class="cls-1" x1="30.82" y1="64.32" x2="49.37" y2="64.32"/>
        <line class="cls-1" x1="56.86" y1="64.32" x2="70.99" y2="64.32"/>
        <line class="cls-1" x1="77.8" y1="64.32" x2="87.67" y2="64.32"/>
        <line class="cls-1" x1="30.73" y1="75.38" x2="63.93" y2="75.38"/>
        <line class="cls-1" x1="71.33" y1="75.38" x2="87.67" y2="75.38"/>
        <line class="cls-1" x1="30.22" y1="86.45" x2="45.37" y2="86.45"/>
        <line class="cls-1" x1="29.8" y1="97.51" x2="58.05" y2="97.51"/>
        <line class="cls-1" x1="68.44" y1="86.45" x2="87.67" y2="86.45"/>
      </g>
      <line class="cls-1" x1="74.73" y1="36.32" x2="87.67" y2="36.32"/>
      <line class="cls-1" x1="64.27" y1="45.51" x2="87.67" y2="45.51"/>
      <circle class="cls-1" cx="37.04" cy="22.55" r="5.96"/>
    </g>
    <g>
      <rect class="cls-3" x="17.21" y="2.9" width="84.77" height="109.45" rx="7.8" ry="7.8"/>
      <line class="cls-1" x1="58.59" y1="17.84" x2="87.57" y2="17.84"/>
      <line class="cls-1" x1="64.85" y1="97.41" x2="87.57" y2="97.41"/>
      <g>
        <line class="cls-1" x1="30.97" y1="36.22" x2="64.17" y2="36.22"/>
        <line class="cls-1" x1="30.97" y1="45.41" x2="53.61" y2="45.41"/>
        <line class="cls-1" x1="30.89" y1="54.6" x2="67.66" y2="54.6"/>
        <line class="cls-1" x1="53.61" y1="27.03" x2="87.7" y2="27.03"/>
        <line class="cls-1" x1="30.72" y1="64.22" x2="49.27" y2="64.22"/>
        <line class="cls-1" x1="56.76" y1="64.22" x2="70.89" y2="64.22"/>
        <line class="cls-1" x1="77.7" y1="64.22" x2="87.57" y2="64.22"/>
        <line class="cls-1" x1="30.63" y1="75.28" x2="63.83" y2="75.28"/>
        <line class="cls-1" x1="71.23" y1="75.28" x2="87.57" y2="75.28"/>
        <line class="cls-1" x1="30.12" y1="86.35" x2="45.27" y2="86.35"/>
        <line class="cls-1" x1="29.7" y1="97.41" x2="57.95" y2="97.41"/>
        <line class="cls-1" x1="68.34" y1="86.35" x2="87.57" y2="86.35"/>
      </g>
      <line class="cls-1" x1="74.63" y1="36.22" x2="87.57" y2="36.22"/>
      <line class="cls-1" x1="64.17" y1="45.41" x2="87.57" y2="45.41"/>
      <circle class="cls-1" cx="36.94" cy="22.45" r="5.96"/>
    </g>
    <g>
      <rect class="cls-3" x="17.11" y="2.8" width="84.77" height="109.45" rx="7.8" ry="7.8"/>
      <line class="cls-1" x1="58.49" y1="17.74" x2="87.47" y2="17.74"/>
      <line class="cls-1" x1="64.75" y1="97.31" x2="87.47" y2="97.31"/>
      <g>
        <line class="cls-1" x1="30.87" y1="36.12" x2="64.07" y2="36.12"/>
        <line class="cls-1" x1="30.87" y1="45.31" x2="53.51" y2="45.31"/>
        <line class="cls-1" x1="30.79" y1="54.5" x2="67.56" y2="54.5"/>
        <line class="cls-1" x1="53.51" y1="26.93" x2="87.6" y2="26.93"/>
        <line class="cls-1" x1="30.62" y1="64.12" x2="49.17" y2="64.12"/>
        <line class="cls-1" x1="56.66" y1="64.12" x2="70.79" y2="64.12"/>
        <line class="cls-1" x1="77.6" y1="64.12" x2="87.47" y2="64.12"/>
        <line class="cls-1" x1="30.53" y1="75.18" x2="63.73" y2="75.18"/>
        <line class="cls-1" x1="71.13" y1="75.18" x2="87.47" y2="75.18"/>
        <line class="cls-1" x1="30.02" y1="86.25" x2="45.17" y2="86.25"/>
        <line class="cls-1" x1="29.6" y1="97.31" x2="57.85" y2="97.31"/>
        <line class="cls-1" x1="68.24" y1="86.25" x2="87.47" y2="86.25"/>
      </g>
      <line class="cls-1" x1="74.53" y1="36.12" x2="87.47" y2="36.12"/>
      <line class="cls-1" x1="64.07" y1="45.31" x2="87.47" y2="45.31"/>
      <circle class="cls-1" cx="36.84" cy="22.35" r="5.96"/>
    </g>
    <g>
      <rect class="cls-3" x="17.01" y="2.7" width="84.77" height="109.45" rx="7.8" ry="7.8"/>
      <line class="cls-1" x1="58.39" y1="17.64" x2="87.37" y2="17.64"/>
      <line class="cls-1" x1="64.65" y1="97.21" x2="87.37" y2="97.21"/>
      <g>
        <line class="cls-1" x1="30.77" y1="36.02" x2="63.97" y2="36.02"/>
        <line class="cls-1" x1="30.77" y1="45.21" x2="53.41" y2="45.21"/>
        <line class="cls-1" x1="30.69" y1="54.4" x2="67.46" y2="54.4"/>
        <line class="cls-1" x1="53.41" y1="26.83" x2="87.5" y2="26.83"/>
        <line class="cls-1" x1="30.52" y1="64.02" x2="49.07" y2="64.02"/>
        <line class="cls-1" x1="56.56" y1="64.02" x2="70.69" y2="64.02"/>
        <line class="cls-1" x1="77.5" y1="64.02" x2="87.37" y2="64.02"/>
        <line class="cls-1" x1="30.43" y1="75.08" x2="63.63" y2="75.08"/>
        <line class="cls-1" x1="71.03" y1="75.08" x2="87.37" y2="75.08"/>
        <line class="cls-1" x1="29.92" y1="86.15" x2="45.07" y2="86.15"/>
        <line class="cls-1" x1="29.5" y1="97.21" x2="57.75" y2="97.21"/>
        <line class="cls-1" x1="68.14" y1="86.15" x2="87.37" y2="86.15"/>
      </g>
      <line class="cls-1" x1="74.43" y1="36.02" x2="87.37" y2="36.02"/>
      <line class="cls-1" x1="63.97" y1="45.21" x2="87.37" y2="45.21"/>
      <circle class="cls-1" cx="36.74" cy="22.25" r="5.96"/>
    </g>
    <g>
      <rect class="cls-3" x="16.91" y="2.6" width="84.77" height="109.45" rx="7.8" ry="7.8"/>
      <line class="cls-1" x1="58.29" y1="17.54" x2="87.27" y2="17.54"/>
      <line class="cls-1" x1="64.55" y1="97.11" x2="87.27" y2="97.11"/>
      <g>
        <line class="cls-1" x1="30.67" y1="35.92" x2="63.87" y2="35.92"/>
        <line class="cls-1" x1="30.67" y1="45.11" x2="53.31" y2="45.11"/>
        <line class="cls-1" x1="30.59" y1="54.3" x2="67.36" y2="54.3"/>
        <line class="cls-1" x1="53.31" y1="26.73" x2="87.4" y2="26.73"/>
        <line class="cls-1" x1="30.42" y1="63.92" x2="48.97" y2="63.92"/>
        <line class="cls-1" x1="56.46" y1="63.92" x2="70.59" y2="63.92"/>
        <line class="cls-1" x1="77.4" y1="63.92" x2="87.27" y2="63.92"/>
        <line class="cls-1" x1="30.33" y1="74.98" x2="63.53" y2="74.98"/>
        <line class="cls-1" x1="70.93" y1="74.98" x2="87.27" y2="74.98"/>
        <line class="cls-1" x1="29.82" y1="86.05" x2="44.97" y2="86.05"/>
        <line class="cls-1" x1="29.4" y1="97.11" x2="57.65" y2="97.11"/>
        <line class="cls-1" x1="68.04" y1="86.05" x2="87.27" y2="86.05"/>
      </g>
      <line class="cls-1" x1="74.33" y1="35.92" x2="87.27" y2="35.92"/>
      <line class="cls-1" x1="63.87" y1="45.11" x2="87.27" y2="45.11"/>
      <circle class="cls-1" cx="36.64" cy="22.15" r="5.96"/>
    </g>
    <g>
      <rect class="cls-3" x="16.81" y="2.5" width="84.77" height="109.45" rx="7.8" ry="7.8"/>
      <line class="cls-1" x1="58.19" y1="17.44" x2="87.17" y2="17.44"/>
      <line class="cls-1" x1="64.45" y1="97.01" x2="87.17" y2="97.01"/>
      <g>
        <line class="cls-1" x1="30.57" y1="35.82" x2="63.77" y2="35.82"/>
        <line class="cls-1" x1="30.57" y1="45.01" x2="53.21" y2="45.01"/>
        <line class="cls-1" x1="30.49" y1="54.2" x2="67.26" y2="54.2"/>
        <line class="cls-1" x1="53.21" y1="26.63" x2="87.3" y2="26.63"/>
        <line class="cls-1" x1="30.32" y1="63.82" x2="48.87" y2="63.82"/>
        <line class="cls-1" x1="56.36" y1="63.82" x2="70.49" y2="63.82"/>
        <line class="cls-1" x1="77.3" y1="63.82" x2="87.17" y2="63.82"/>
        <line class="cls-1" x1="30.23" y1="74.88" x2="63.43" y2="74.88"/>
        <line class="cls-1" x1="70.83" y1="74.88" x2="87.17" y2="74.88"/>
        <line class="cls-1" x1="29.72" y1="85.95" x2="44.87" y2="85.95"/>
        <line class="cls-1" x1="29.3" y1="97.01" x2="57.55" y2="97.01"/>
        <line class="cls-1" x1="67.94" y1="85.95" x2="87.17" y2="85.95"/>
      </g>
      <line class="cls-1" x1="74.23" y1="35.82" x2="87.17" y2="35.82"/>
      <line class="cls-1" x1="63.77" y1="45.01" x2="87.17" y2="45.01"/>
      <circle class="cls-1" cx="36.54" cy="22.05" r="5.96"/>
    </g>
  </g>
  <g>
    <rect class="cls-2" x="16.81" y="2.5" width="84.77" height="109.45" rx="7.8" ry="7.8"/>
    <line class="cls-4" x1="58.19" y1="17.44" x2="87.17" y2="17.44"/>
    <line class="cls-4" x1="64.45" y1="97.01" x2="87.17" y2="97.01"/>
    <g>
      <line class="cls-4" x1="30.57" y1="35.82" x2="63.77" y2="35.82"/>
      <line class="cls-4" x1="30.57" y1="45.01" x2="53.21" y2="45.01"/>
      <line class="cls-4" x1="30.49" y1="54.2" x2="67.26" y2="54.2"/>
      <line class="cls-4" x1="53.21" y1="26.63" x2="87.3" y2="26.63"/>
      <line class="cls-4" x1="30.32" y1="63.82" x2="48.87" y2="63.82"/>
      <line class="cls-4" x1="56.36" y1="63.82" x2="70.49" y2="63.82"/>
      <line class="cls-4" x1="77.3" y1="63.82" x2="87.17" y2="63.82"/>
      <line class="cls-4" x1="30.23" y1="74.88" x2="63.43" y2="74.88"/>
      <line class="cls-4" x1="70.83" y1="74.88" x2="87.17" y2="74.88"/>
      <line class="cls-4" x1="29.72" y1="85.95" x2="44.87" y2="85.95"/>
      <line class="cls-4" x1="29.3" y1="97.01" x2="57.55" y2="97.01"/>
      <line class="cls-4" x1="67.94" y1="85.95" x2="87.17" y2="85.95"/>
    </g>
    <line class="cls-4" x1="74.23" y1="35.82" x2="87.17" y2="35.82"/>
    <line class="cls-4" x1="63.77" y1="45.01" x2="87.17" y2="45.01"/>
    <circle class="cls-4" cx="36.54" cy="22.05" r="5.96"/>
  </g>
</svg>