<?xml version="1.0" encoding="UTF-8"?>
<svg id="Layer_2_copy" data-name="Layer 2 copy" xmlns="http://www.w3.org/2000/svg" viewBox="0 0 121.55 120.38">
  <defs>
    <style>
      .cls-1 {
        opacity: .75;
      }

      .cls-2 {
        fill: #fff;
        stroke: #231f20;
        stroke-miterlimit: 10;
        stroke-width: 5px;
      }
    </style>
  </defs>
  <g class="cls-1">
    <g>
      <path class="cls-2" d="M73.51,36.45c-4.61,0-8.34-3.73-8.34-8.34v-1.99c0-1.74-1.41-3.15-3.15-3.15h-30.89c-2.53,0-4.58,2.05-4.58,4.58v65.33c0,2.53,2.05,4.58,4.58,4.58h73.53c2.53,0,4.58-2.05,4.58-4.58v-53.29c0-1.74-1.41-3.15-3.15-3.15h-32.6Z"/>
      <path class="cls-2" d="M13.57,44.88h81.99c1.05,0,1.96.71,2.18,1.7l10.68,48.29c.3,1.34-.76,2.6-2.18,2.6H26.67c-1.01,0-1.9-.66-2.15-1.61l-13.1-48.29c-.37-1.36.7-2.7,2.15-2.7Z"/>
    </g>
    <g>
      <path class="cls-2" d="M73.41,36.35c-4.61,0-8.34-3.73-8.34-8.34v-1.99c0-1.74-1.41-3.15-3.15-3.15h-30.89c-2.53,0-4.58,2.05-4.58,4.58v65.33c0,2.53,2.05,4.58,4.58,4.58h73.53c2.53,0,4.58-2.05,4.58-4.58v-53.29c0-1.74-1.41-3.15-3.15-3.15h-32.6Z"/>
      <path class="cls-2" d="M13.47,44.78h81.99c1.05,0,1.96.71,2.18,1.7l10.68,48.29c.3,1.34-.76,2.6-2.18,2.6H26.57c-1.01,0-1.9-.66-2.15-1.61l-13.1-48.29c-.37-1.36.7-2.7,2.15-2.7Z"/>
    </g>
    <g>
      <path class="cls-2" d="M73.31,36.25c-4.61,0-8.34-3.73-8.34-8.34v-1.99c0-1.74-1.41-3.15-3.15-3.15h-30.89c-2.53,0-4.58,2.05-4.58,4.58v65.33c0,2.53,2.05,4.58,4.58,4.58h73.53c2.53,0,4.58-2.05,4.58-4.58v-53.29c0-1.74-1.41-3.15-3.15-3.15h-32.6Z"/>
      <path class="cls-2" d="M13.37,44.68h81.99c1.05,0,1.96.71,2.18,1.7l10.68,48.29c.3,1.34-.76,2.6-2.18,2.6H26.47c-1.01,0-1.9-.66-2.15-1.61l-13.1-48.29c-.37-1.36.7-2.7,2.15-2.7Z"/>
    </g>
    <g>
      <path class="cls-2" d="M73.21,36.15c-4.61,0-8.34-3.73-8.34-8.34v-1.99c0-1.74-1.41-3.15-3.15-3.15h-30.89c-2.53,0-4.58,2.05-4.58,4.58v65.33c0,2.53,2.05,4.58,4.58,4.58h73.53c2.53,0,4.58-2.05,4.58-4.58v-53.29c0-1.74-1.41-3.15-3.15-3.15h-32.6Z"/>
      <path class="cls-2" d="M13.27,44.58h81.99c1.05,0,1.96.71,2.18,1.7l10.68,48.29c.3,1.34-.76,2.6-2.18,2.6H26.37c-1.01,0-1.9-.66-2.15-1.61l-13.1-48.29c-.37-1.36.7-2.7,2.15-2.7Z"/>
    </g>
    <g>
      <path class="cls-2" d="M73.11,36.05c-4.61,0-8.34-3.73-8.34-8.34v-1.99c0-1.74-1.41-3.15-3.15-3.15h-30.89c-2.53,0-4.58,2.05-4.58,4.58v65.33c0,2.53,2.05,4.58,4.58,4.58h73.53c2.53,0,4.58-2.05,4.58-4.58v-53.29c0-1.74-1.41-3.15-3.15-3.15h-32.6Z"/>
      <path class="cls-2" d="M13.17,44.48h81.99c1.05,0,1.96.71,2.18,1.7l10.68,48.29c.3,1.34-.76,2.6-2.18,2.6H26.27c-1.01,0-1.9-.66-2.15-1.61l-13.1-48.29c-.37-1.36.7-2.7,2.15-2.7Z"/>
    </g>
    <g>
      <path class="cls-2" d="M73.01,35.95c-4.61,0-8.34-3.73-8.34-8.34v-1.99c0-1.74-1.41-3.15-3.15-3.15h-30.89c-2.53,0-4.58,2.05-4.58,4.58v65.33c0,2.53,2.05,4.58,4.58,4.58h73.53c2.53,0,4.58-2.05,4.58-4.58v-53.29c0-1.74-1.41-3.15-3.15-3.15h-32.6Z"/>
      <path class="cls-2" d="M13.07,44.38h81.99c1.05,0,1.96.71,2.18,1.7l10.68,48.29c.3,1.34-.76,2.6-2.18,2.6H26.17c-1.01,0-1.9-.66-2.15-1.61l-13.1-48.29c-.37-1.36.7-2.7,2.15-2.7Z"/>
    </g>
    <g>
      <path class="cls-2" d="M72.91,35.85c-4.61,0-8.34-3.73-8.34-8.34v-1.99c0-1.74-1.41-3.15-3.15-3.15h-30.89c-2.53,0-4.58,2.05-4.58,4.58v65.33c0,2.53,2.05,4.58,4.58,4.58h73.53c2.53,0,4.58-2.05,4.58-4.58v-53.29c0-1.74-1.41-3.15-3.15-3.15h-32.6Z"/>
      <path class="cls-2" d="M12.97,44.28h81.99c1.05,0,1.96.71,2.18,1.7l10.68,48.29c.3,1.34-.76,2.6-2.18,2.6H26.07c-1.01,0-1.9-.66-2.15-1.61l-13.1-48.29c-.37-1.36.7-2.7,2.15-2.7Z"/>
    </g>
    <g>
      <path class="cls-2" d="M72.81,35.75c-4.61,0-8.34-3.73-8.34-8.34v-1.99c0-1.74-1.41-3.15-3.15-3.15h-30.89c-2.53,0-4.58,2.05-4.58,4.58v65.33c0,2.53,2.05,4.58,4.58,4.58h73.53c2.53,0,4.58-2.05,4.58-4.58v-53.29c0-1.74-1.41-3.15-3.15-3.15h-32.6Z"/>
      <path class="cls-2" d="M12.87,44.18h81.99c1.05,0,1.96.71,2.18,1.7l10.68,48.29c.3,1.34-.76,2.6-2.18,2.6H25.97c-1.01,0-1.9-.66-2.15-1.61l-13.1-48.29c-.37-1.36.7-2.7,2.15-2.7Z"/>
    </g>
    <g>
      <path class="cls-2" d="M72.71,35.65c-4.61,0-8.34-3.73-8.34-8.34v-1.99c0-1.74-1.41-3.15-3.15-3.15h-30.89c-2.53,0-4.58,2.05-4.58,4.58v65.33c0,2.53,2.05,4.58,4.58,4.58h73.53c2.53,0,4.58-2.05,4.58-4.58v-53.29c0-1.74-1.41-3.15-3.15-3.15h-32.6Z"/>
      <path class="cls-2" d="M12.77,44.08h81.99c1.05,0,1.96.71,2.18,1.7l10.68,48.29c.3,1.34-.76,2.6-2.18,2.6H25.87c-1.01,0-1.9-.66-2.15-1.61l-13.1-48.29c-.37-1.36.7-2.7,2.15-2.7Z"/>
    </g>
    <g>
      <path class="cls-2" d="M72.61,35.55c-4.61,0-8.34-3.73-8.34-8.34v-1.99c0-1.74-1.41-3.15-3.15-3.15h-30.89c-2.53,0-4.58,2.05-4.58,4.58v65.33c0,2.53,2.05,4.58,4.58,4.58h73.53c2.53,0,4.58-2.05,4.58-4.58v-53.29c0-1.74-1.41-3.15-3.15-3.15h-32.6Z"/>
      <path class="cls-2" d="M12.67,43.98h81.99c1.05,0,1.96.71,2.18,1.7l10.68,48.29c.3,1.34-.76,2.6-2.18,2.6H25.77c-1.01,0-1.9-.66-2.15-1.61l-13.1-48.29c-.37-1.36.7-2.7,2.15-2.7Z"/>
    </g>
    <g>
      <path class="cls-2" d="M72.51,35.45c-4.61,0-8.34-3.73-8.34-8.34v-1.99c0-1.74-1.41-3.15-3.15-3.15h-30.89c-2.53,0-4.58,2.05-4.58,4.58v65.33c0,2.53,2.05,4.58,4.58,4.58h73.53c2.53,0,4.58-2.05,4.58-4.58v-53.29c0-1.74-1.41-3.15-3.15-3.15h-32.6Z"/>
      <path class="cls-2" d="M12.57,43.88h81.99c1.05,0,1.96.71,2.18,1.7l10.68,48.29c.3,1.34-.76,2.6-2.18,2.6H25.67c-1.01,0-1.9-.66-2.15-1.61l-13.1-48.29c-.37-1.36.7-2.7,2.15-2.7Z"/>
    </g>
    <g>
      <path class="cls-2" d="M72.41,35.35c-4.61,0-8.34-3.73-8.34-8.34v-1.99c0-1.74-1.41-3.15-3.15-3.15h-30.89c-2.53,0-4.58,2.05-4.58,4.58v65.33c0,2.53,2.05,4.58,4.58,4.58h73.53c2.53,0,4.58-2.05,4.58-4.58v-53.29c0-1.74-1.41-3.15-3.15-3.15h-32.6Z"/>
      <path class="cls-2" d="M12.47,43.78h81.99c1.05,0,1.96.71,2.18,1.7l10.68,48.29c.3,1.34-.76,2.6-2.18,2.6H25.57c-1.01,0-1.9-.66-2.15-1.61l-13.1-48.29c-.37-1.36.7-2.7,2.15-2.7Z"/>
    </g>
    <g>
      <path class="cls-2" d="M72.31,35.25c-4.61,0-8.34-3.73-8.34-8.34v-1.99c0-1.74-1.41-3.15-3.15-3.15h-30.89c-2.53,0-4.58,2.05-4.58,4.58v65.33c0,2.53,2.05,4.58,4.58,4.58h73.53c2.53,0,4.58-2.05,4.58-4.58v-53.29c0-1.74-1.41-3.15-3.15-3.15h-32.6Z"/>
      <path class="cls-2" d="M12.37,43.68h81.99c1.05,0,1.96.71,2.18,1.7l10.68,48.29c.3,1.34-.76,2.6-2.18,2.6H25.47c-1.01,0-1.9-.66-2.15-1.61l-13.1-48.29c-.37-1.36.7-2.7,2.15-2.7Z"/>
    </g>
    <g>
      <path class="cls-2" d="M72.21,35.15c-4.61,0-8.34-3.73-8.34-8.34v-1.99c0-1.74-1.41-3.15-3.15-3.15h-30.89c-2.53,0-4.58,2.05-4.58,4.58v65.33c0,2.53,2.05,4.58,4.58,4.58h73.53c2.53,0,4.58-2.05,4.58-4.58v-53.29c0-1.74-1.41-3.15-3.15-3.15h-32.6Z"/>
      <path class="cls-2" d="M12.27,43.58h81.99c1.05,0,1.96.71,2.18,1.7l10.68,48.29c.3,1.34-.76,2.6-2.18,2.6H25.37c-1.01,0-1.9-.66-2.15-1.61l-13.1-48.29c-.37-1.36.7-2.7,2.15-2.7Z"/>
    </g>
    <g>
      <path class="cls-2" d="M72.11,35.05c-4.61,0-8.34-3.73-8.34-8.34v-1.99c0-1.74-1.41-3.15-3.15-3.15h-30.89c-2.53,0-4.58,2.05-4.58,4.58v65.33c0,2.53,2.05,4.58,4.58,4.58h73.53c2.53,0,4.58-2.05,4.58-4.58v-53.29c0-1.74-1.41-3.15-3.15-3.15h-32.6Z"/>
      <path class="cls-2" d="M12.17,43.48h81.99c1.05,0,1.96.71,2.18,1.7l10.68,48.29c.3,1.34-.76,2.6-2.18,2.6H25.27c-1.01,0-1.9-.66-2.15-1.61l-13.1-48.29c-.37-1.36.7-2.7,2.15-2.7Z"/>
    </g>
    <g>
      <path class="cls-2" d="M72.01,34.95c-4.61,0-8.34-3.73-8.34-8.34v-1.99c0-1.74-1.41-3.15-3.15-3.15h-30.89c-2.53,0-4.58,2.05-4.58,4.58v65.33c0,2.53,2.05,4.58,4.58,4.58h73.53c2.53,0,4.58-2.05,4.58-4.58v-53.29c0-1.74-1.41-3.15-3.15-3.15h-32.6Z"/>
      <path class="cls-2" d="M12.07,43.38h81.99c1.05,0,1.96.71,2.18,1.7l10.68,48.29c.3,1.34-.76,2.6-2.18,2.6H25.17c-1.01,0-1.9-.66-2.15-1.61l-13.1-48.29c-.37-1.36.7-2.7,2.15-2.7Z"/>
    </g>
    <g>
      <path class="cls-2" d="M71.91,34.85c-4.61,0-8.34-3.73-8.34-8.34v-1.99c0-1.74-1.41-3.15-3.15-3.15h-30.89c-2.53,0-4.58,2.05-4.58,4.58v65.33c0,2.53,2.05,4.58,4.58,4.58h73.53c2.53,0,4.58-2.05,4.58-4.58v-53.29c0-1.74-1.41-3.15-3.15-3.15h-32.6Z"/>
      <path class="cls-2" d="M11.97,43.28h81.99c1.05,0,1.96.71,2.18,1.7l10.68,48.29c.3,1.34-.76,2.6-2.18,2.6H25.07c-1.01,0-1.9-.66-2.15-1.61l-13.1-48.29c-.37-1.36.7-2.7,2.15-2.7Z"/>
    </g>
    <g>
      <path class="cls-2" d="M71.81,34.75c-4.61,0-8.34-3.73-8.34-8.34v-1.99c0-1.74-1.41-3.15-3.15-3.15h-30.89c-2.53,0-4.58,2.05-4.58,4.58v65.33c0,2.53,2.05,4.58,4.58,4.58h73.53c2.53,0,4.58-2.05,4.58-4.58v-53.29c0-1.74-1.41-3.15-3.15-3.15h-32.6Z"/>
      <path class="cls-2" d="M11.87,43.18h81.99c1.05,0,1.96.71,2.18,1.7l10.68,48.29c.3,1.34-.76,2.6-2.18,2.6H24.97c-1.01,0-1.9-.66-2.15-1.61l-13.1-48.29c-.37-1.36.7-2.7,2.15-2.7Z"/>
    </g>
    <g>
      <path class="cls-2" d="M71.71,34.65c-4.61,0-8.34-3.73-8.34-8.34v-1.99c0-1.74-1.41-3.15-3.15-3.15h-30.89c-2.53,0-4.58,2.05-4.58,4.58v65.33c0,2.53,2.05,4.58,4.58,4.58h73.53c2.53,0,4.58-2.05,4.58-4.58v-53.29c0-1.74-1.41-3.15-3.15-3.15h-32.6Z"/>
      <path class="cls-2" d="M11.77,43.08h81.99c1.05,0,1.96.71,2.18,1.7l10.68,48.29c.3,1.34-.76,2.6-2.18,2.6H24.87c-1.01,0-1.9-.66-2.15-1.61l-13.1-48.29c-.37-1.36.7-2.7,2.15-2.7Z"/>
    </g>
    <g>
      <path class="cls-2" d="M71.61,34.55c-4.61,0-8.34-3.73-8.34-8.34v-1.99c0-1.74-1.41-3.15-3.15-3.15h-30.89c-2.53,0-4.58,2.05-4.58,4.58v65.33c0,2.53,2.05,4.58,4.58,4.58h73.53c2.53,0,4.58-2.05,4.58-4.58v-53.29c0-1.74-1.41-3.15-3.15-3.15h-32.6Z"/>
      <path class="cls-2" d="M11.67,42.98h81.99c1.05,0,1.96.71,2.18,1.7l10.68,48.29c.3,1.34-.76,2.6-2.18,2.6H24.77c-1.01,0-1.9-.66-2.15-1.61l-13.1-48.29c-.37-1.36.7-2.7,2.15-2.7Z"/>
    </g>
    <g>
      <path class="cls-2" d="M71.51,34.45c-4.61,0-8.34-3.73-8.34-8.34v-1.99c0-1.74-1.41-3.15-3.15-3.15h-30.89c-2.53,0-4.58,2.05-4.58,4.58v65.33c0,2.53,2.05,4.58,4.58,4.58h73.53c2.53,0,4.58-2.05,4.58-4.58v-53.29c0-1.74-1.41-3.15-3.15-3.15h-32.6Z"/>
      <path class="cls-2" d="M11.57,42.88h81.99c1.05,0,1.96.71,2.18,1.7l10.68,48.29c.3,1.34-.76,2.6-2.18,2.6H24.67c-1.01,0-1.9-.66-2.15-1.61l-13.1-48.29c-.37-1.36.7-2.7,2.15-2.7Z"/>
    </g>
    <g>
      <path class="cls-2" d="M71.41,34.35c-4.61,0-8.34-3.73-8.34-8.34v-1.99c0-1.74-1.41-3.15-3.15-3.15h-30.89c-2.53,0-4.58,2.05-4.58,4.58v65.33c0,2.53,2.05,4.58,4.58,4.58h73.53c2.53,0,4.58-2.05,4.58-4.58v-53.29c0-1.74-1.41-3.15-3.15-3.15h-32.6Z"/>
      <path class="cls-2" d="M11.47,42.78h81.99c1.05,0,1.96.71,2.18,1.7l10.68,48.29c.3,1.34-.76,2.6-2.18,2.6H24.57c-1.01,0-1.9-.66-2.15-1.61l-13.1-48.29c-.37-1.36.7-2.7,2.15-2.7Z"/>
    </g>
    <g>
      <path class="cls-2" d="M71.31,34.25c-4.61,0-8.34-3.73-8.34-8.34v-1.99c0-1.74-1.41-3.15-3.15-3.15h-30.89c-2.53,0-4.58,2.05-4.58,4.58v65.33c0,2.53,2.05,4.58,4.58,4.58h73.53c2.53,0,4.58-2.05,4.58-4.58v-53.29c0-1.74-1.41-3.15-3.15-3.15h-32.6Z"/>
      <path class="cls-2" d="M11.37,42.68h81.99c1.05,0,1.96.71,2.18,1.7l10.68,48.29c.3,1.34-.76,2.6-2.18,2.6H24.47c-1.01,0-1.9-.66-2.15-1.61l-13.1-48.29c-.37-1.36.7-2.7,2.15-2.7Z"/>
    </g>
    <g>
      <path class="cls-2" d="M71.21,34.15c-4.61,0-8.34-3.73-8.34-8.34v-1.99c0-1.74-1.41-3.15-3.15-3.15h-30.89c-2.53,0-4.58,2.05-4.58,4.58v65.33c0,2.53,2.05,4.58,4.58,4.58h73.53c2.53,0,4.58-2.05,4.58-4.58v-53.29c0-1.74-1.41-3.15-3.15-3.15h-32.6Z"/>
      <path class="cls-2" d="M11.27,42.58h81.99c1.05,0,1.96.71,2.18,1.7l10.68,48.29c.3,1.34-.76,2.6-2.18,2.6H24.37c-1.01,0-1.9-.66-2.15-1.61l-13.1-48.29c-.37-1.36.7-2.7,2.15-2.7Z"/>
    </g>
    <g>
      <path class="cls-2" d="M71.11,34.05c-4.61,0-8.34-3.73-8.34-8.34v-1.99c0-1.74-1.41-3.15-3.15-3.15h-30.89c-2.53,0-4.58,2.05-4.58,4.58v65.33c0,2.53,2.05,4.58,4.58,4.58h73.53c2.53,0,4.58-2.05,4.58-4.58v-53.29c0-1.74-1.41-3.15-3.15-3.15h-32.6Z"/>
      <path class="cls-2" d="M11.17,42.48h81.99c1.05,0,1.96.71,2.18,1.7l10.68,48.29c.3,1.34-.76,2.6-2.18,2.6H24.27c-1.01,0-1.9-.66-2.15-1.61l-13.1-48.29c-.37-1.36.7-2.7,2.15-2.7Z"/>
    </g>
    <g>
      <path class="cls-2" d="M71.01,33.95c-4.61,0-8.34-3.73-8.34-8.34v-1.99c0-1.74-1.41-3.15-3.15-3.15h-30.89c-2.53,0-4.58,2.05-4.58,4.58v65.33c0,2.53,2.05,4.58,4.58,4.58h73.53c2.53,0,4.58-2.05,4.58-4.58v-53.29c0-1.74-1.41-3.15-3.15-3.15h-32.6Z"/>
      <path class="cls-2" d="M11.07,42.38h81.99c1.05,0,1.96.71,2.18,1.7l10.68,48.29c.3,1.34-.76,2.6-2.18,2.6H24.17c-1.01,0-1.9-.66-2.15-1.61l-13.1-48.29c-.37-1.36.7-2.7,2.15-2.7Z"/>
    </g>
    <g>
      <path class="cls-2" d="M70.91,33.85c-4.61,0-8.34-3.73-8.34-8.34v-1.99c0-1.74-1.41-3.15-3.15-3.15h-30.89c-2.53,0-4.58,2.05-4.58,4.58v65.33c0,2.53,2.05,4.58,4.58,4.58h73.53c2.53,0,4.58-2.05,4.58-4.58v-53.29c0-1.74-1.41-3.15-3.15-3.15h-32.6Z"/>
      <path class="cls-2" d="M10.97,42.28h81.99c1.05,0,1.96.71,2.18,1.7l10.68,48.29c.3,1.34-.76,2.6-2.18,2.6H24.07c-1.01,0-1.9-.66-2.15-1.61l-13.1-48.29c-.37-1.36.7-2.7,2.15-2.7Z"/>
    </g>
    <g>
      <path class="cls-2" d="M70.81,33.75c-4.61,0-8.34-3.73-8.34-8.34v-1.99c0-1.74-1.41-3.15-3.15-3.15h-30.89c-2.53,0-4.58,2.05-4.58,4.58v65.33c0,2.53,2.05,4.58,4.58,4.58h73.53c2.53,0,4.58-2.05,4.58-4.58v-53.29c0-1.74-1.41-3.15-3.15-3.15h-32.6Z"/>
      <path class="cls-2" d="M10.87,42.18h81.99c1.05,0,1.96.71,2.18,1.7l10.68,48.29c.3,1.34-.76,2.6-2.18,2.6H23.97c-1.01,0-1.9-.66-2.15-1.61l-13.1-48.29c-.37-1.36.7-2.7,2.15-2.7Z"/>
    </g>
    <g>
      <path class="cls-2" d="M70.71,33.65c-4.61,0-8.34-3.73-8.34-8.34v-1.99c0-1.74-1.41-3.15-3.15-3.15h-30.89c-2.53,0-4.58,2.05-4.58,4.58v65.33c0,2.53,2.05,4.58,4.58,4.58h73.53c2.53,0,4.58-2.05,4.58-4.58v-53.29c0-1.74-1.41-3.15-3.15-3.15h-32.6Z"/>
      <path class="cls-2" d="M10.77,42.08h81.99c1.05,0,1.96.71,2.18,1.7l10.68,48.29c.3,1.34-.76,2.6-2.18,2.6H23.87c-1.01,0-1.9-.66-2.15-1.61l-13.1-48.29c-.37-1.36.7-2.7,2.15-2.7Z"/>
    </g>
    <g>
      <path class="cls-2" d="M70.61,33.55c-4.61,0-8.34-3.73-8.34-8.34v-1.99c0-1.74-1.41-3.15-3.15-3.15h-30.89c-2.53,0-4.58,2.05-4.58,4.58v65.33c0,2.53,2.05,4.58,4.58,4.58h73.53c2.53,0,4.58-2.05,4.58-4.58v-53.29c0-1.74-1.41-3.15-3.15-3.15h-32.6Z"/>
      <path class="cls-2" d="M10.67,41.98h81.99c1.05,0,1.96.71,2.18,1.7l10.68,48.29c.3,1.34-.76,2.6-2.18,2.6H23.77c-1.01,0-1.9-.66-2.15-1.61l-13.1-48.29c-.37-1.36.7-2.7,2.15-2.7Z"/>
    </g>
    <g>
      <path class="cls-2" d="M70.51,33.45c-4.61,0-8.34-3.73-8.34-8.34v-1.99c0-1.74-1.41-3.15-3.15-3.15h-30.89c-2.53,0-4.58,2.05-4.58,4.58v65.33c0,2.53,2.05,4.58,4.58,4.58h73.53c2.53,0,4.58-2.05,4.58-4.58v-53.29c0-1.74-1.41-3.15-3.15-3.15h-32.6Z"/>
      <path class="cls-2" d="M10.57,41.88h81.99c1.05,0,1.96.71,2.18,1.7l10.68,48.29c.3,1.34-.76,2.6-2.18,2.6H23.67c-1.01,0-1.9-.66-2.15-1.61l-13.1-48.29c-.37-1.36.7-2.7,2.15-2.7Z"/>
    </g>
  </g>
  <g>
    <path class="cls-2" d="M70.51,33.45c-4.61,0-8.34-3.73-8.34-8.34v-1.99c0-1.74-1.41-3.15-3.15-3.15h-30.89c-2.53,0-4.58,2.05-4.58,4.58v65.33c0,2.53,2.05,4.58,4.58,4.58h73.53c2.53,0,4.58-2.05,4.58-4.58v-53.29c0-1.74-1.41-3.15-3.15-3.15h-32.6Z"/>
    <path class="cls-2" d="M10.57,41.88h81.99c1.05,0,1.96.71,2.18,1.7l10.68,48.29c.3,1.34-.76,2.6-2.18,2.6H23.67c-1.01,0-1.9-.66-2.15-1.61l-13.1-48.29c-.37-1.36.7-2.7,2.15-2.7Z"/>
  </g>
</svg>