<?xml version="1.0" encoding="UTF-8"?>
<svg id="Layer_2_copy_8" data-name="Layer 2 copy 8" xmlns="http://www.w3.org/2000/svg" viewBox="0 0 121.55 120.38">
  <defs>
    <style>
      .cls-1 {
        stroke-width: 10px;
      }

      .cls-1, .cls-2 {
        fill: none;
        stroke: #231f20;
        stroke-linecap: round;
        stroke-linejoin: round;
      }

      .cls-2 {
        stroke-width: 7px;
      }
    </style>
  </defs>
  <path class="cls-1" d="M79.32,94.18c3.91,0,7.08-3.17,7.08-7.08V18.22c0-3.73-3.02-6.76-6.76-6.76h-9.48c-2.02,0-3.99.65-5.61,1.86l-9.65,8.54c-2.21,1.64-4.88,2.53-7.63,2.53h-9.25c-3.32,0-6.01,2.69-6.01,6.01v55.74c0,4.43,3.59,8.02,8.02,8.02h39.3Z"/>
  <g>
    <line class="cls-2" x1="64.16" y1="46.11" x2="76.94" y2="58.11"/>
    <line class="cls-2" x1="76.94" y1="58.11" x2="64.16" y2="70.11"/>
  </g>
  <g>
    <line class="cls-2" x1="54.22" y1="46.11" x2="41.45" y2="58.11"/>
    <line class="cls-2" x1="41.45" y1="58.11" x2="54.22" y2="70.11"/>
  </g>
</svg>