<?xml version="1.0" encoding="UTF-8"?>
<svg xmlns="http://www.w3.org/2000/svg" viewBox="0 0 64 64">
  <defs>
    <style>
      .cls-1 {
        fill: #363436;
        stroke-width: 0px;
      }

      .cls-2 {
        fill: none;
        stroke: #fff;
        stroke-linecap: round;
        stroke-miterlimit: 10;
        stroke-width: 3px;
      }
    </style>
  </defs>
  <g id="Layer_1" data-name="Layer 1">
    <g>
      <rect class="cls-1" x=".5" y=".5" width="63" height="63" rx="7.68" ry="7.68"/>
      <path class="cls-1" d="m55.82,1c3.96,0,7.18,3.22,7.18,7.18v47.64c0,3.96-3.22,7.18-7.18,7.18H8.18c-3.96,0-7.18-3.22-7.18-7.18V8.18c0-3.96,3.22-7.18,7.18-7.18h47.64m0-1H8.18C3.66,0,0,3.66,0,8.18v47.64c0,4.52,3.66,8.18,8.18,8.18h47.64c4.52,0,8.18-3.66,8.18-8.18V8.18c0-4.52-3.66-8.18-8.18-8.18h0Z"/>
    </g>
  </g>
  <g id="Layer_2" data-name="Layer 2">
    <path class="cls-2" d="m25.81,10.45l6.05,42.9c.02.16-.17.27-.28.15-3.01-2.99-24.2-24.12-23.38-26.32.89-2.36,47.63-11.71,47.63-11.71"/>
  </g>
</svg>